<svg width="111" height="76" viewBox="0 0 111 76" fill="none" xmlns="http://www.w3.org/2000/svg">
<path d="M103.074 0H7.73438C3.46268 0 0 3.46268 0 7.73438V68.0194C0 72.2911 3.46268 75.7538 7.73438 75.7538H103.074C107.346 75.7538 110.809 72.2911 110.809 68.0194V7.73438C110.809 3.46268 107.346 0 103.074 0ZM12.5642 16.7828H39.8155V40.9486H12.5642V16.7828ZM27.6104 58.9707H12.3237V51.2364H27.6104V58.9707ZM51.2351 58.9707H35.9483V51.2364H51.2351V58.9707ZM74.8602 58.9707H59.5735V51.2364H74.8602V58.9707ZM98.4851 58.9707H83.1984V51.2364H98.4851V58.9707Z" fill="#B0D93C"/>
</svg>
