<svg width="51" height="51" viewBox="0 0 51 51" fill="none" xmlns="http://www.w3.org/2000/svg">
<path d="M25.41 50.82C39.424 50.82 50.82 39.424 50.82 25.41C50.82 11.396 39.424 0 25.41 0C11.396 0 0 11.396 0 25.41C0 39.424 11.396 50.82 25.41 50.82ZM24.8688 27.544C17.7518 25.7444 16.2558 22.077 16.2558 19.3182C16.2558 15.4374 19.2258 12.1946 23.2078 11.297V11.0528C23.2078 9.8384 24.1934 8.8528 25.4078 8.8528C26.6222 8.8528 27.6078 9.8384 27.6078 11.0528V11.297C31.5898 12.1946 34.5598 15.4374 34.5598 19.3204C34.5598 20.5348 33.5742 21.5204 32.3598 21.5204C31.1454 21.5204 30.1598 20.5348 30.1598 19.3204C30.1598 17.1732 28.028 15.4286 25.4078 15.4286C22.7876 15.4286 20.6558 17.1732 20.6558 19.3204C20.6558 21.0606 22.4356 22.3916 25.9468 23.2826C33.0638 25.0844 34.5598 28.7496 34.5598 31.5084C34.5598 35.3914 31.5898 38.6342 27.6078 39.534V39.7782C27.6078 40.9926 26.6222 41.9782 25.4078 41.9782C24.1934 41.9782 23.2078 40.9926 23.2078 39.7782V39.534C19.2258 38.6342 16.2558 35.3914 16.2558 31.5106C16.2558 30.2962 17.2414 29.3106 18.4558 29.3106C19.6702 29.3106 20.6558 30.2962 20.6558 31.5106C20.6558 33.6578 22.7876 35.4046 25.4078 35.4046C28.028 35.4046 30.1598 33.6578 30.1598 31.5106C30.1598 29.3392 27.2822 28.1534 24.8688 27.544Z" fill="#B0D93C"/>
</svg>
