<svg width="110" height="45" viewBox="0 0 110 45" fill="none" xmlns="http://www.w3.org/2000/svg">
<path d="M12.2425 9.72633C10.8345 11.2003 9.14046 12.5423 7.11645 13.8183L1.02246 17.7123C0.538455 18.0203 0.186455 18.5263 0.0544549 19.0983C-0.0775452 19.6703 0.0324546 20.2643 0.362455 20.7703L14.9265 43.3643C15.2565 43.8703 15.7625 44.2003 16.3345 44.3323C16.4885 44.3543 16.6205 44.3763 16.7745 44.3763C17.2145 44.3763 17.6325 44.2443 17.9845 44.0023L25.0685 39.3383C28.6105 37.0063 32.7245 35.8623 36.9705 36.0603L63.6565 37.2043C69.0245 37.4463 74.3925 35.8623 78.7705 32.7823L106.974 12.9823C108.58 11.8383 109.658 10.1003 109.922 8.16433C110.208 6.22833 109.68 4.22633 108.448 2.70833C106.248 -0.0856669 102.398 -0.811669 99.3185 0.970331L76.1965 14.3243C76.4385 13.3343 76.5485 12.3223 76.5485 11.2883C76.5485 10.6723 76.2845 10.1003 75.8445 9.68233C75.4045 9.26433 74.8105 9.04434 74.2165 9.08834C62.5565 9.81434 55.0545 7.39434 45.5285 4.33634C42.8885 3.47834 40.0945 2.57634 37.0365 1.69633C25.0025 -1.82367 15.6965 6.14033 12.2425 9.72633Z" fill="#B0D93C"/>
</svg>
