<svg width="28" height="28" viewBox="0 0 28 28" fill="none" xmlns="http://www.w3.org/2000/svg">
<path fill-rule="evenodd" clip-rule="evenodd" d="M7.66672 1.18378C9.39833 0.798954 11.499 0.666687 14 0.666687C16.5009 0.666687 18.6016 0.798954 20.3332 1.18378C22.08 1.57198 23.5317 2.23469 24.6485 3.35146C25.7653 4.46823 26.428 5.92005 26.8162 7.66678C27.201 9.39839 27.3333 11.4991 27.3333 14C27.3333 16.501 27.201 18.6016 26.8162 20.3332C26.428 22.08 25.7653 23.5318 24.6485 24.6486C23.5317 25.7654 22.08 26.428 20.3332 26.8163C18.6016 27.2011 16.5009 27.3334 14 27.3334C11.499 27.3334 9.39833 27.2011 7.66672 26.8163C5.91999 26.428 4.46817 25.7654 3.3514 24.6486C2.23463 23.5318 1.57192 22.08 1.18372 20.3332C0.798893 18.6016 0.666626 16.501 0.666626 14C0.666626 11.4991 0.798893 9.39839 1.18372 7.66678C1.57192 5.92005 2.23463 4.46823 3.3514 3.35146C4.46817 2.23469 5.91999 1.57198 7.66672 1.18378ZM14 6.00002C11.0544 6.00002 8.66663 8.38783 8.66663 11.3334C8.66663 14.2788 11.0544 16.6667 14 16.6667C16.9454 16.6667 19.3333 14.2788 19.3333 11.3334C19.3333 8.38783 16.9454 6.00002 14 6.00002ZM22.5033 21.059C22.9737 21.826 22.8073 22.84 22.0492 23.3247C21.3598 23.7655 20.5544 24.0354 19.7545 24.2131C18.3096 24.5342 16.4398 24.6667 13.9997 24.6667C11.5597 24.6667 9.68988 24.5342 8.24504 24.2131C7.46017 24.0387 6.66936 23.7759 5.98837 23.3494C5.21659 22.866 5.04693 21.8382 5.52895 21.0655C6.084 20.1758 6.84899 19.4767 7.87839 18.9792C9.44025 18.2246 11.4876 18 13.9994 18C16.5028 18 18.5478 18.2064 20.1076 18.9396C21.1636 19.436 21.9429 20.1452 22.5033 21.059Z" fill="white"/>
</svg>
