<svg width="896" height="511" viewBox="0 0 896 511" fill="none" xmlns="http://www.w3.org/2000/svg">
<g clip-path="url(#clip0_1_1107)">
<path opacity="0.4" d="M445.459 71.3695C445.879 67.6054 443.169 64.2141 439.41 63.7971C435.649 63.3764 432.263 66.0887 431.843 69.8491C431.422 73.6131 434.133 77.0045 437.891 77.4215C441.653 77.8422 445.038 75.1298 445.459 71.3658V71.3695ZM450.722 131.336C450.187 136.137 445.865 139.595 441.066 139.06C436.268 138.525 432.813 134.2 433.347 129.399C433.882 124.598 438.205 121.14 443.003 121.675C447.801 122.21 451.256 126.535 450.722 131.336ZM825.88 370.424C825.518 373.653 827.846 376.561 831.069 376.922C833.617 377.206 835.963 375.811 837.014 373.623L881.277 393.805C881.255 393.938 881.229 394.067 881.211 394.204C880.757 398.278 883.689 401.946 887.757 402.4C891.829 402.854 895.495 399.92 895.948 395.846C896.402 391.772 893.47 388.104 889.402 387.65C885.552 387.222 882.067 389.823 881.318 393.554L837.121 373.402C837.346 372.881 837.497 372.32 837.563 371.726C837.925 368.497 835.598 365.589 832.371 365.228C830.969 365.073 829.627 365.423 828.532 366.136L796.988 319.443C798.67 318.262 799.861 316.398 800.108 314.192C800.562 310.118 797.63 306.449 793.562 305.996C789.49 305.542 785.824 308.475 785.371 312.549C785.05 315.413 786.411 318.07 788.657 319.561L769.177 350.157C768.465 349.725 767.657 349.43 766.776 349.33C763.549 348.969 760.643 351.297 760.281 354.526C759.92 357.755 762.247 360.663 765.474 361.025C768.34 361.346 770.951 359.545 771.751 356.873L825.979 369.829C825.939 370.025 825.906 370.224 825.884 370.424H825.88ZM828.332 366.276C827.226 367.058 826.396 368.217 826.038 369.593L771.81 356.637C771.876 356.375 771.932 356.105 771.965 355.829C772.216 353.567 771.15 351.467 769.383 350.286L788.863 319.69C789.767 320.247 790.796 320.624 791.917 320.749C793.698 320.948 795.399 320.498 796.789 319.59L828.329 366.283L828.332 366.276ZM405.333 14.6909C402.778 14.4068 400.679 12.8421 399.591 10.7128L337.847 40.9138C338.212 41.888 338.363 42.9582 338.241 44.0653C337.821 47.8293 334.435 50.538 330.673 50.1173C326.912 49.6966 324.205 46.309 324.625 42.5449C325.046 38.7809 328.431 36.0722 332.193 36.4929C334.763 36.7807 336.836 38.4524 337.762 40.685L399.488 10.4914C398.931 9.30313 398.677 7.9525 398.831 6.5539C399.281 2.50938 402.925 -0.402224 406.963 0.0479864C411.006 0.498197 413.915 4.14416 413.465 8.18499C413.015 12.2295 409.372 15.1411 405.333 14.6909ZM9.99066 346.895C13.8077 347.319 17.3925 345.776 19.7307 343.075L183.021 481.408C182.043 482.596 181.383 484.072 181.199 485.714C180.697 490.231 183.946 494.302 188.46 494.803C192.919 495.302 196.932 492.132 197.518 487.703L371.994 498.021C371.743 503.284 375.612 507.908 380.919 508.502C386.443 509.118 391.419 505.136 392.034 499.608C392.093 499.077 392.097 498.556 392.075 498.04L593.429 486.512C593.595 488.46 595.114 490.084 597.128 490.305C599.422 490.56 601.487 488.906 601.745 486.611C601.797 486.135 601.764 485.674 601.668 485.231L772.33 441.612C773.068 444.302 775.373 446.402 778.312 446.731C782.159 447.159 785.629 444.387 786.057 440.535C786.112 440.029 786.112 439.531 786.061 439.044L814.163 435.678C814.038 438.416 816.055 440.819 818.814 441.129C821.694 441.45 824.287 439.376 824.608 436.494C824.928 433.612 822.856 431.018 819.975 430.696C817.095 430.375 814.502 432.449 814.182 435.331C814.178 435.365 814.182 435.398 814.174 435.431L786.024 438.804C785.6 435.693 783.121 433.151 779.861 432.785C779.643 432.759 779.426 432.748 779.212 432.745L779.245 389.761C782.723 389.705 785.703 387.078 786.097 383.528C786.525 379.675 783.756 376.206 779.905 375.778C776.059 375.35 772.588 378.121 772.16 381.974C772.16 381.989 772.16 382.004 772.16 382.018L753.374 384.207C753.562 381.841 751.843 379.734 749.468 379.472C748.045 379.313 746.706 379.856 745.788 380.819L733.223 364.206C734.783 363.442 735.93 361.929 736.136 360.072C736.457 357.19 734.384 354.596 731.504 354.275C730.954 354.212 730.416 354.242 729.9 354.345L719.496 319.701C721.627 319.011 723.265 317.129 723.53 314.76C723.892 311.531 721.565 308.623 718.341 308.261C715.738 307.97 713.348 309.427 712.33 311.697L620.569 272.724C620.753 272.263 620.886 271.772 620.941 271.252C621.288 268.141 619.049 265.336 615.94 264.99C612.831 264.643 610.029 266.883 609.682 269.993C609.405 272.462 610.762 274.732 612.887 275.739L566.112 380.218C565.293 379.808 564.393 379.527 563.431 379.42C561.583 379.214 559.816 379.66 558.345 380.564L509.8 301.696C511.419 300.586 512.566 298.807 512.802 296.7C513.075 294.246 512.046 291.954 510.268 290.5L572.024 212.045C573.344 212.931 574.889 213.525 576.578 213.713C582.199 214.341 587.266 210.289 587.893 204.661C588.52 199.034 584.471 193.967 578.846 193.34C573.226 192.712 568.159 196.764 567.532 202.392C567.104 206.241 568.863 209.828 571.817 211.909L510.073 290.349C509.099 289.607 507.922 289.105 506.617 288.958C505.123 288.792 503.692 289.113 502.468 289.784L449.777 204.185C450.438 203.536 450.888 202.665 450.998 201.672C451.253 199.377 449.6 197.31 447.307 197.052C445.013 196.797 442.947 198.451 442.689 200.746C442.438 202.997 444.024 205.023 446.248 205.344L391.459 292.113C390.356 291.194 388.988 290.578 387.458 290.408C386.218 290.271 385.02 290.445 383.928 290.858L335.147 208.662C336.995 207.267 338.297 205.148 338.573 202.665C339.108 197.875 335.66 193.557 330.873 193.026C329.386 192.86 327.948 193.081 326.65 193.602L307.524 157.644C308.892 156.869 309.888 155.478 310.072 153.791C310.209 152.562 309.895 151.393 309.265 150.437L378.581 102.187C379.388 103.29 380.635 104.072 382.103 104.235C384.883 104.545 387.391 102.541 387.701 99.7585C388.011 96.9761 386.008 94.4667 383.227 94.1567C380.447 93.8468 377.939 95.8506 377.629 98.633C377.493 99.8619 377.806 101.032 378.437 101.987L309.121 150.237C308.313 149.134 307.067 148.355 305.599 148.189C302.818 147.879 300.31 149.883 300 152.666C299.864 153.895 300.177 155.064 300.808 156.02L264.323 181.42C263.515 180.317 262.268 179.534 260.801 179.372C258.02 179.062 255.512 181.066 255.202 183.848C255.202 183.874 255.202 183.9 255.198 183.926L226.893 177.339C227.081 176.77 227.218 176.173 227.284 175.553C227.819 170.763 224.371 166.445 219.583 165.914C214.796 165.379 210.485 168.829 209.95 173.619C209.884 174.213 209.88 174.8 209.932 175.372L93.8816 187.509C93.1145 184.627 90.6583 182.372 87.5198 182.022C83.4335 181.564 79.7529 184.509 79.2955 188.598C79.0005 191.244 80.1328 193.712 82.0763 195.255L13.5016 324.694C13.166 324.624 12.8231 324.569 12.4764 324.528C6.31 323.842 0.752136 328.285 0.0661621 334.458C-0.619812 340.629 3.82062 346.19 9.98694 346.88L9.99066 346.895ZM82.2755 195.425C83.2971 196.181 84.5215 196.694 85.875 196.845C86.7675 196.945 87.6415 196.875 88.464 196.672L128.578 314.494C125.993 315.428 124.02 317.753 123.695 320.672C123.629 321.281 123.644 321.882 123.721 322.465L21.9471 332.329C20.7706 328.613 17.7023 325.668 13.7524 324.764L82.2755 195.425ZM594.465 483.386L546.576 443.443C547.779 441.967 548.59 440.147 548.815 438.114C548.907 437.284 548.885 436.468 548.786 435.675L657.493 410.038C658.105 412.157 659.392 414.009 661.126 415.338L600.292 482.965C599.68 482.445 598.909 482.094 598.05 481.998C596.645 481.843 595.328 482.404 594.458 483.386H594.465ZM677.36 404.964L745.127 386.008C745.799 387.214 747.019 388.093 748.495 388.255C749.136 388.325 749.756 388.255 750.331 388.067L775.59 433.689C774.049 434.579 772.869 436.044 772.36 437.826L676.376 412.057C676.984 410.928 677.397 409.669 677.548 408.315C677.678 407.16 677.6 406.031 677.36 404.957V404.964ZM726.982 362.944L675.929 401.551C674.31 399.086 671.648 397.333 668.491 396.979C668.074 396.931 667.661 396.92 667.252 396.923L662.299 359.759C665.677 359.257 668.446 356.629 669.025 353.142L725.688 359.43C725.669 360.759 726.16 361.995 726.986 362.944H726.982ZM465.164 355.607L554.882 385.022C554.734 385.502 554.624 386 554.568 386.517C554.428 387.79 554.598 389.022 555.007 390.148L475.656 420.386C474.174 416.526 470.648 413.603 466.255 413.112C463.143 412.766 460.185 413.703 457.91 415.504L441.291 387.502C443.058 386.41 444.327 384.55 444.574 382.321C444.821 380.103 444.002 378.014 442.527 376.561L456.711 358.541C457.456 359.102 458.356 359.482 459.352 359.596C462.047 359.895 464.493 358.154 465.16 355.604L465.164 355.607ZM391.374 303.87L433.941 375.597C432.175 376.69 430.906 378.55 430.659 380.778C430.36 383.465 431.621 385.96 433.72 387.369L393.366 438.634C392.127 437.645 390.607 436.977 388.914 436.789C384.599 436.309 380.683 439.066 379.558 443.122L316.305 426.427C316.397 426.054 316.475 425.678 316.519 425.287C316.888 421.987 315.365 418.914 312.82 417.146L383.674 304.936C384.334 305.217 385.046 305.409 385.794 305.494C387.882 305.726 389.862 305.088 391.378 303.87H391.374ZM329.15 210.392L305.606 415.895C304.101 416.297 302.741 417.094 301.66 418.183L214.096 324.934C216.154 322.963 217.559 320.288 217.898 317.236C218.374 312.966 216.655 308.959 213.646 306.335L322.084 205.532C323.353 208.126 325.868 210.042 328.951 210.385C329.018 210.392 329.084 210.392 329.15 210.396V210.392ZM383.275 488.508L387.104 454.144C391.843 454.606 396.088 451.181 396.615 446.432C396.737 445.347 396.644 444.291 396.386 443.291L454.004 427.597C454.469 429.231 455.287 430.73 456.386 431.992L389.457 491.711C387.893 489.999 385.743 488.814 383.272 488.508H383.275ZM441.085 387.635L457.721 415.67C455.516 417.493 453.986 420.142 453.643 423.213C453.484 424.644 453.598 426.047 453.941 427.364L396.327 443.059C395.844 441.383 394.874 439.9 393.558 438.789L433.926 387.502C434.786 388.037 435.77 388.399 436.84 388.521C438.37 388.69 439.838 388.347 441.081 387.639L441.085 387.635ZM558.832 394.525L542.291 427.416C541.498 427.113 540.657 426.892 539.772 426.796C534.152 426.169 529.084 430.22 528.457 435.848C528.431 436.077 528.428 436.302 528.417 436.527L476.287 426.135C476.305 426.006 476.327 425.877 476.342 425.744C476.541 423.951 476.313 422.209 475.745 420.618L555.088 390.38C555.796 392.156 557.124 393.628 558.832 394.521V394.525ZM529.14 440.815L391.301 494.575C390.884 493.593 390.312 492.693 389.619 491.892L456.549 432.173C458.352 434.154 460.853 435.516 463.726 435.837C469.781 436.512 475.258 432.317 476.254 426.375L528.402 436.771C528.372 438.191 528.631 439.56 529.136 440.815H529.14ZM374.867 491.442L312.58 431.649C314.332 430.516 315.656 428.763 316.239 426.663L379.492 443.358C379.399 443.73 379.322 444.107 379.278 444.498C378.75 449.247 382.136 453.524 386.856 454.118L383.028 488.482C379.882 488.168 376.928 489.346 374.863 491.445L374.867 491.442ZM299.55 426.995L196.607 482.718C195.368 480.43 193.07 478.762 190.286 478.452C190.26 478.452 190.238 478.452 190.212 478.448L203.33 328.266C203.548 328.303 203.769 328.333 203.994 328.358C207.763 328.779 211.33 327.484 213.919 325.1L301.494 418.364C300.247 419.692 299.399 421.408 299.182 423.357C299.041 424.626 299.182 425.855 299.554 426.995H299.55ZM185.068 479.629L133.612 328.502C136.198 327.569 138.171 325.244 138.495 322.325C138.536 321.971 138.54 321.624 138.529 321.277L192.801 316.018C192.879 321.978 197.172 327.126 203.087 328.218L189.965 478.434C188.184 478.304 186.484 478.751 185.064 479.633L185.068 479.629ZM255.195 184.188C255.069 186.837 257.017 189.162 259.69 189.461C261.955 189.712 264.035 188.432 264.898 186.446L321.461 199.606C321.369 199.975 321.291 200.351 321.251 200.742C321.07 202.359 321.354 203.916 321.977 205.296L213.461 306.173C211.628 304.638 209.338 303.604 206.786 303.32C199.878 302.549 193.653 307.531 192.882 314.443C192.831 314.889 192.809 315.332 192.805 315.775L138.525 321.033C138.307 317.487 135.574 314.505 131.927 314.096C130.843 313.974 129.792 314.096 128.818 314.413L88.711 196.613C91.5471 195.819 93.7599 193.377 94.1065 190.266C94.2024 189.406 94.1398 188.564 93.9554 187.764L209.98 175.626C210.445 179.568 213.557 182.811 217.666 183.273C221.748 183.727 225.477 181.284 226.819 177.582L255.198 184.184L255.195 184.188ZM326.436 193.712C324.076 194.742 322.235 196.794 321.52 199.369L264.983 186.214C265.13 185.826 265.237 185.417 265.285 184.985C265.422 183.756 265.108 182.586 264.478 181.63L300.963 156.23C301.771 157.334 303.017 158.116 304.485 158.279C305.495 158.393 306.469 158.194 307.317 157.769L326.436 193.712ZM383.707 290.958C381.251 291.987 379.41 294.279 379.093 297.117C378.724 300.445 380.565 303.505 383.441 304.837L312.606 417.02C311.5 416.297 310.216 415.806 308.811 415.651C307.793 415.537 306.797 415.614 305.853 415.836L329.386 210.411C331.441 210.536 333.38 209.938 334.955 208.82L383.703 290.961L383.707 290.958ZM502.261 289.921C500.447 291.006 499.138 292.891 498.883 295.157C498.61 297.611 499.639 299.903 501.417 301.357L463.187 349.928C462.442 349.367 461.542 348.987 460.546 348.873C457.585 348.54 454.915 350.677 454.587 353.64C454.376 355.519 455.162 357.279 456.515 358.401L442.346 376.402C441.288 375.428 439.927 374.763 438.389 374.59C436.858 374.42 435.391 374.763 434.148 375.472L391.555 303.704C392.96 302.497 393.937 300.781 394.159 298.792C394.443 296.25 393.428 293.862 391.655 292.283L446.491 205.44L446.388 205.374C447.602 205.51 448.749 205.108 449.6 204.359L502.261 289.917V289.921ZM558.135 380.697C556.678 381.657 555.542 383.085 554.956 384.793L465.223 355.371C465.26 355.194 465.289 355.017 465.311 354.832C465.522 352.954 464.736 351.194 463.383 350.072L501.612 301.501C502.586 302.243 503.762 302.744 505.068 302.892C506.72 303.077 508.299 302.667 509.601 301.837L558.138 380.694L558.135 380.697ZM570.515 388.299C570.619 387.388 570.552 386.498 570.364 385.65L653.178 353.002C653.698 356.522 656.519 359.397 660.222 359.807C660.846 359.877 661.454 359.866 662.051 359.796L667.001 396.934C661.989 397.1 657.725 400.912 657.15 406.046C657.006 407.345 657.121 408.607 657.434 409.799L548.749 435.431C548.207 431.881 545.831 428.859 542.516 427.501L559.046 394.632C559.846 395.019 560.72 395.289 561.653 395.392C566.06 395.883 570.028 392.709 570.519 388.299H570.515ZM712.234 311.929C712.042 312.409 711.906 312.922 711.847 313.461C711.699 314.786 712.009 316.051 712.64 317.114L666.481 345.869C665.275 344.78 663.737 344.038 662 343.846C657.593 343.356 653.624 346.529 653.134 350.939C653.064 351.555 653.075 352.164 653.145 352.755L570.305 385.413C569.748 383.244 568.299 381.395 566.329 380.336L613.104 275.85C613.595 276.057 614.122 276.2 614.679 276.263C617.187 276.544 619.488 275.141 620.473 272.957L712.234 311.929ZM729.66 354.412C727.591 354.925 725.961 356.674 725.71 358.917C725.699 359.01 725.699 359.098 725.695 359.187L669.059 352.902C669.066 352.84 669.081 352.781 669.088 352.714C669.376 350.135 668.402 347.71 666.665 346.038L712.761 317.325C713.687 318.745 715.218 319.757 717.036 319.959C717.807 320.044 718.555 319.974 719.26 319.779L729.66 354.412ZM745.614 381.007C745.061 381.657 744.692 382.469 744.589 383.38C744.493 384.24 744.655 385.067 745.006 385.79L677.298 404.728C677.036 403.669 676.615 402.673 676.051 401.765L727.141 363.132C727.96 363.988 729.074 364.575 730.346 364.715C731.283 364.818 732.19 364.667 732.998 364.316L745.618 381.007H745.614ZM778.969 432.756C777.833 432.774 776.752 433.062 775.797 433.571L750.564 387.989C752.02 387.428 753.127 386.111 753.352 384.465L772.149 382.277C771.891 386.008 774.609 389.314 778.36 389.735C778.578 389.761 778.795 389.772 779.009 389.775L778.976 432.759L778.969 432.756ZM601.605 485.002C601.399 484.286 601.004 483.641 600.473 483.131L661.321 415.485C662.715 416.5 664.375 417.183 666.212 417.389C670.401 417.858 674.281 415.725 676.25 412.286L772.29 438.07C772.216 438.368 772.153 438.675 772.116 438.988C772.024 439.815 772.087 440.62 772.267 441.383L601.605 485.002ZM392.06 497.8C391.99 496.756 391.762 495.745 391.385 494.803L529.228 441.04C530.641 444.306 533.705 446.749 537.493 447.17C540.996 447.561 544.286 446.133 546.418 443.638L594.303 483.578C593.838 484.168 593.521 484.892 593.433 485.696C593.41 485.892 593.407 486.083 593.414 486.275L392.06 497.804V497.8ZM372.005 497.782L197.548 487.467C197.714 485.851 197.396 484.294 196.714 482.939L299.628 427.231C300.708 430.283 303.445 432.615 306.875 432.999C308.866 433.221 310.769 432.748 312.355 431.781L374.693 491.622C373.259 493.154 372.281 495.136 372.031 497.383C372.016 497.516 372.016 497.649 372.005 497.785V497.782ZM19.8855 342.894C21.239 341.263 22.1462 339.234 22.4008 336.972C22.5704 335.447 22.4266 333.957 22.0209 332.573L123.754 322.712C124.282 325.923 126.878 328.528 130.267 328.905C131.352 329.026 132.403 328.905 133.376 328.587L184.85 479.766C184.23 480.175 183.67 480.67 183.179 481.227L19.8892 342.894H19.8855ZM584.891 114.346C581.406 113.959 578.894 110.815 579.285 107.327C579.673 103.84 582.815 101.327 586.3 101.714C589.785 102.102 592.297 105.246 591.906 108.733C591.518 112.221 588.376 114.734 584.891 114.346Z" fill="#294951"/>
<path opacity="0.5" d="M69.5337 435.527L59.9227 295.976L13.6383 168.253L69.5337 435.527Z" fill="#2D678B"/>
<path opacity="0.5" d="M516.682 361.999L467.631 364.213L416.737 383.218L83.7324 452.871L314.384 382.321L445.485 355.201L516.682 361.999Z" fill="#2D678B"/>
<path opacity="0.5" d="M99.7532 398.374L69.5337 435.527L33.2843 261.174L99.7532 398.374Z" fill="#2D678B"/>
<path opacity="0.5" d="M416.737 383.218L114.642 415.57L83.7324 452.871L416.737 383.218Z" fill="#2D678B"/>
<path opacity="0.5" d="M416.184 125.885L304.566 259.794C304.566 259.794 288.933 285.057 257.968 269.558C227.004 254.059 153.989 217.47 153.989 217.47C153.989 217.47 266.465 264.023 279.005 262.547C291.544 261.07 416.184 125.885 416.184 125.885Z" fill="#2D678B"/>
<path opacity="0.5" d="M8.84377 145.126L257.968 269.558L66.9593 151.994L8.84377 145.126Z" fill="#2D678B"/>
<path opacity="0.5" d="M327.915 232.412L482.689 45.8365L374.524 146.673L327.915 232.412Z" fill="#2D678B"/>
<path opacity="0.5" d="M547.122 355.541L346.126 240.405L530.674 325.31L547.122 355.541Z" fill="#2D678B"/>
<path opacity="0.5" d="M547.122 355.541L405.105 253.354L346.126 240.405L547.122 355.541Z" fill="#2D678B"/>
<path opacity="0.5" d="M590.405 429.84L516.645 393.429L475.586 419.508L590.405 429.84Z" fill="#2D678B"/>
<path opacity="0.5" d="M581.801 495.77L552.297 392.691L493.536 428.117L581.801 495.77Z" fill="#2D678B"/>
<g opacity="0.6">
<path opacity="0.6" d="M518.094 214.204L487.823 69.1478L383.851 195.015L482.549 93.9426L518.094 214.204Z" fill="#90C0E1"/>
<path opacity="0.6" d="M482.689 45.8365L8.8439 145.126L254.642 108.335L482.689 45.8365Z" fill="#90C0E1"/>
<path opacity="0.6" d="M487.823 69.1478L441.613 166.452L346.127 240.405L487.823 69.1478Z" fill="#90C0E1"/>
<path opacity="0.6" d="M518.094 214.204L476.542 123.424L487.823 69.1478L518.094 214.204Z" fill="#90C0E1"/>
<path opacity="0.6" d="M359.772 71.0225L8.84384 145.126L155.825 141.875L359.772 71.0225Z" fill="#90C0E1"/>
<path opacity="0.6" d="M482.689 45.8365L440.539 68.4393L155.826 114.198L482.689 45.8365Z" fill="#90C0E1"/>
<path opacity="0.6" d="M461.561 329.709L332.112 256.089C332.112 256.089 318.835 273.433 314.963 277.307C311.091 281.182 294.495 292.991 278.821 293.36C263.147 293.729 254.111 289.116 229.586 276.2L139.599 384.694L235.487 295.759C235.487 295.759 274.211 317.9 307.403 296.866C329.531 282.474 334.325 268.82 334.325 268.82L461.561 329.709Z" fill="#90C0E1"/>
<path opacity="0.6" d="M139.598 384.694L209.67 333.399L229.586 276.2L139.598 384.694Z" fill="#90C0E1"/>
<path opacity="0.6" d="M461.561 329.709L434.27 335.244L332.112 256.089L461.561 329.709Z" fill="#90C0E1"/>
<path opacity="0.6" d="M208.807 266.606L14.0108 168.667L155.069 269.96L208.807 266.606Z" fill="#90C0E1"/>
<path opacity="0.6" d="M183.854 297.05L208.807 266.606L74.8591 199.665L183.854 297.05Z" fill="#90C0E1"/>
<path d="M644.803 303.017L554.51 223.43L562.376 271.898L644.803 303.017Z" fill="#90C0E1"/>
</g>
<path d="M69.3933 436.42L69.8802 435.83L209.74 266.167L209.327 265.96L13.048 167.988L13.203 168.733L69.3933 436.416V436.42ZM208.582 266.414L69.799 434.767L14.0807 169.331L208.579 266.414H208.582Z" fill="#7BBCF2"/>
<path d="M547.808 355.725L548.173 355.087L346.502 239.881L487.657 69.7678L517.932 214.189L518.655 214.038L488.066 68.1183L487.576 68.7087L345.374 240.088L345.754 240.305L547.808 355.725Z" fill="#7BBCF2"/>
<path d="M82.6811 453.576L83.7138 453.358L416.257 383.21L416.106 382.487L84.5916 452.417L229.371 276.791L251.127 287.651C262.294 293.224 275.169 294.877 287.38 292.305C299.591 289.733 310.707 283.024 318.676 273.418L332.422 256.852L516.892 362.228L517.257 361.585L332.248 255.9L318.105 272.942C301.76 292.641 274.35 298.416 251.452 286.987L229.169 275.865L82.6737 453.572L82.6811 453.576Z" fill="#7BBCF2"/>
<path d="M276.899 275.595C286.539 275.595 295.958 271.385 302.483 263.521L483.851 44.9435L482.815 45.1612L7.5235 145.049L8.47134 145.521L261.977 272.056C266.753 274.44 271.857 275.591 276.899 275.591V275.595ZM481.933 46.1022L301.915 263.052C292.2 274.757 275.914 278.189 262.309 271.399L9.75476 145.337L481.933 46.1022Z" fill="#7BBCF2"/>
<path d="M328.295 232.788L345.407 145.027L416.914 126.199L386.093 96.5627L483.065 45.855L482.722 45.2018L385.529 96.0239L359.152 70.6608L350.651 114.261L240.778 171.715L156.316 113.634L155.055 161.799L8.68149 144.827L8.59668 145.562L155.036 162.541L153.579 218.145L240.727 172.574L328.291 232.788H328.295ZM344.614 145.237L327.786 231.545L241.689 172.342L344.614 145.241V145.237ZM239.576 172.346L154.35 216.913L155.774 162.629L239.576 172.346ZM157.02 115.014L239.259 171.567L155.792 161.887L157.02 115.014ZM344.769 144.433L243.6 171.073L350.471 115.187L344.769 144.433ZM415.453 125.819L345.562 144.222L351.308 114.748L385.4 96.9206L415.453 125.819ZM384.839 96.3819L351.489 113.822L359.617 72.1295L384.839 96.3819Z" fill="#7BBCF2"/>
<path d="M257.197 270.853L257.71 269.997L351.459 114.025L257.666 92.2378L257.588 92.6068L240.627 172.128L240.638 172.198L257.197 270.857V270.853ZM350.305 114.516L257.596 268.761L241.38 172.143L258.234 93.1271L350.308 114.516H350.305Z" fill="#7BBCF2"/>
<path d="M306.071 260.642L294.752 208.436L249.674 223.039L155.726 161.865L257.931 93.1345L329.877 148.691L327.616 234.106L385.724 96.2011L257.839 92.3079L154.387 161.873L248.214 222.965L154.096 217.16L67.6895 152.079L156.806 114.656L156.522 113.977L66.218 151.898L153.826 217.883L153.937 217.891L249.464 223.784L306.067 260.639L306.071 260.642ZM294.203 209.392L304.968 259.044L250.467 223.559L294.199 209.392H294.203ZM384.629 96.9133L328.461 230.216L330.626 148.341L330.478 148.226L259.075 93.0865L384.629 96.9096V96.9133Z" fill="#7BBCF2"/>
<path d="M416.519 126.155L442.826 66.3174L359.366 71.0225L359.407 71.7605L441.664 67.1219L415.844 125.86L416.519 126.155Z" fill="#7BBCF2"/>
<path d="M549.593 357.497L548.313 355.223C548.313 355.223 518.219 301.829 488.107 248.431C485.994 244.682 483.88 240.933 481.775 237.202C489.294 232.552 496.35 228.19 502.225 224.552C513.141 217.791 518.616 214.342 518.651 214.204L518.699 214.012L518.566 213.865C518.47 213.759 517.709 213.808 516.283 214.012C515.015 214.193 513.156 214.466 510.795 214.813C506.071 215.511 499.333 216.514 491.249 217.725C485.776 218.544 479.477 219.489 472.385 220.551C462.925 203.776 454.015 187.985 446.687 174.999C441.033 164.984 436.32 156.636 433.015 150.795C429.507 144.59 427.7 141.469 427.594 141.432L427.424 141.377L427.277 141.473C427.159 141.549 426.901 143.607 426.502 147.647C426.134 151.389 425.614 156.732 424.994 163.138C423.755 175.951 422.117 193.03 420.484 210.101C419.908 216.123 419.333 222.138 418.776 227.972C415.63 224.884 412.625 221.935 409.792 219.156C402.095 211.606 395.682 205.314 391.186 200.912C388.94 198.712 387.174 196.982 385.964 195.808C385.359 195.218 384.898 194.768 384.585 194.465C383.958 193.856 383.862 193.768 383.604 194C383.478 194.113 383.556 194.563 383.836 195.351C384.057 195.971 384.382 196.875 384.799 198.03C385.628 200.333 386.816 203.624 388.243 207.569C390.681 214.307 393.819 222.961 397.057 231.892C368.346 236.224 345.883 239.619 345.883 239.619L345.993 240.35C346.609 240.257 368.929 236.884 397.316 232.6C397.784 233.892 398.256 235.194 398.728 236.49C406.086 256.775 413.454 277.049 413.967 278.459L413.904 279.116L414.535 278.728C414.535 278.728 429.586 269.44 448.236 257.926C493.764 302.634 546.809 354.755 547.738 355.67L549.601 357.497H549.593ZM481.148 237.589C509.556 287.969 539.85 341.713 546.388 353.312C537.943 345.016 502.081 309.778 466.211 274.547C460.395 268.835 454.579 263.122 448.878 257.524C454.539 254.029 460.513 250.335 466.491 246.645C471.437 243.59 476.379 240.534 481.148 237.589ZM447.69 257.391C431.36 267.477 417.817 275.835 414.778 277.71C415.166 273.625 417.102 253.31 419.366 229.581C428.007 238.062 437.655 247.535 447.694 257.391H447.69ZM418.643 229.382C416.504 251.771 414.664 271.141 414.129 276.747C412.097 271.156 404.891 251.313 398.061 232.486C404.666 231.489 411.599 230.445 418.643 229.382ZM480.786 236.943C470.202 243.486 458.732 250.572 448.335 256.989C438.304 247.14 428.649 237.659 420.004 229.176C437.651 226.515 455.999 223.755 471.99 221.352C474.878 226.474 477.821 231.692 480.782 236.943H480.786ZM516.693 214.695C512.304 217.448 498.002 226.301 481.413 236.556C478.503 231.397 475.616 226.275 472.772 221.238C494.332 218.001 511.496 215.437 516.693 214.695ZM418.433 228.666C411.367 229.733 404.422 230.777 397.802 231.777C391.927 215.584 386.384 200.285 384.714 195.616C388.457 199.259 401.376 211.927 418.433 228.666ZM471.607 220.666C460.336 222.36 447.096 224.349 432.009 226.622C427.815 227.253 423.618 227.884 419.466 228.511C422.859 192.956 426.952 150.234 427.716 142.931C431.12 148.898 449.884 182.154 471.603 220.666H471.607Z" fill="#7BBCF2"/>
<path d="M474.646 313.963L533.989 286.112L533.591 285.74L481.649 237.246L481.148 237.785L532.687 285.91L475 312.981L448.9 257.458L488.221 69.0187L487.502 68.8674L448.129 257.55L448.181 257.661L474.646 313.963Z" fill="#7BBCF2"/>
<path d="M517.958 214.267L518.629 213.961L476.98 122.465L476.656 122.586L427.347 141.44L427.609 142.13L476.597 123.402L517.958 214.267Z" fill="#7BBCF2"/>
<path d="M123.707 370.855L80.852 291.884L166.395 319.841L118.447 272.248L209.183 266.657L209.139 265.919L117.747 271.551L12.0449 166.63L70.5588 274.459L34.3684 276.688L79.2624 291.36L52.211 353.64L52.6387 353.744L123.71 370.852L123.707 370.855ZM79.9152 291.703L122.265 369.748L53.2326 353.131L79.9152 291.703ZM117.459 272.307L163.662 318.173L80.3357 290.939L71.7537 275.127L117.455 272.311L117.459 272.307ZM70.946 275.175L79.3178 290.603L38.2666 277.186L70.9424 275.171L70.946 275.175ZM116.758 271.613L71.3701 274.411L15.0875 170.689L116.758 271.613Z" fill="#7BBCF2"/>
<path d="M141.703 382.873L233.781 420.941L233.499 421.624L141.422 383.555L141.703 382.873Z" fill="#7BBCF2"/>
<path d="M415.889 383.351L469.18 363.925L409.615 339.673L402.626 296.209L401.9 296.327L408.907 339.916L341.159 369.073L323.471 322.321L322.781 322.583L340.742 370.055L409.029 340.665L415.892 383.347L415.889 383.351ZM467.13 363.888L416.475 382.354L409.748 340.529L467.126 363.888H467.13Z" fill="#7BBCF2"/>
<path d="M233.295 422.497L262.593 373.571L311.046 405.171L310.898 406.215L311.724 405.226C311.724 405.226 325.02 389.34 341.439 369.719L520.115 362.143L372.835 332.185C378.514 325.391 383.821 319.044 388.332 313.645C392.588 308.553 396.132 304.309 398.61 301.331C399.849 299.844 400.823 298.674 401.487 297.873C402.251 296.951 402.612 296.422 402.567 296.286L402.468 295.988L402.158 296.039C401.885 296.084 364.26 308.531 323.482 322.041L332.96 254.62L301.475 307.202C289.46 299.028 279.809 292.559 279.362 292.559C279.049 292.559 278.724 292.559 254.948 322.712C244.684 335.728 234.376 348.891 231.923 352.028L229.648 276.315L228.91 276.337L231.201 352.644C214.494 358.19 197.149 363.955 181.977 369.007C169.205 373.258 159.285 376.568 152.495 378.841C148.936 380.033 146.141 380.974 144.234 381.62C142.119 382.338 141.062 382.793 141.062 382.985V383.148L141.184 383.258C141.361 383.421 141.401 383.454 160.48 381.852C170.526 381.011 184.511 379.815 202.051 378.302C212.373 377.413 222.74 376.516 231.898 375.719L233.303 422.493L233.295 422.497ZM261.973 373.165L233.956 419.954L232.624 375.656C247.668 374.35 259.311 373.335 261.888 373.11L261.97 373.162L261.973 373.165ZM315.877 370.8L311.16 404.363L263.128 373.036L315.881 370.8H315.877ZM340.439 369.759C326.631 386.262 315.106 400.034 311.986 403.765L316.626 370.771L340.439 369.759ZM231.868 374.985C196.338 378.066 154.87 381.635 144.105 382.45C153.675 379.217 189.323 367.346 231.219 353.426L231.868 374.988V374.985ZM260.889 372.461C252.569 373.188 242.844 374.033 232.602 374.922L231.96 353.596L260.885 372.461H260.889ZM262.475 372.328H262.375C262.276 372.343 262.176 372.35 262.08 372.357L232.432 353.024C249.202 347.452 266.923 341.566 284.36 335.78L262.475 372.328ZM315.98 370.058L263.356 372.291L285.433 335.422C298.156 331.2 310.696 327.037 322.582 323.096L315.98 370.055V370.058ZM341.081 368.995L316.729 370.029L323.36 322.878L371.47 332.665C361.678 344.378 350.836 357.338 341.081 368.999V368.995ZM514.045 361.663L342.08 368.955C346.923 363.165 352.023 357.069 357.124 350.972C362.269 344.821 367.413 338.669 372.293 332.835L514.045 361.667V361.663ZM284.939 334.816C280.329 336.344 275.822 337.839 271.477 339.282C260.196 343.024 246.746 347.485 232.783 352.12C248.519 332.012 276.969 295.825 279.414 293.36C280.896 294.172 290.714 300.792 301.085 307.848L284.935 334.816H284.939ZM322.394 322.402C310.216 326.436 297.788 330.558 286.012 334.462L301.697 308.265C309.449 313.538 317.426 318.996 322.394 322.402ZM401.144 297.132C398.068 300.844 386.182 315.07 372.009 332.019L324.703 322.399C363.482 309.542 394.767 299.191 401.144 297.132ZM331.721 258.126L322.774 321.768C315.947 317.085 308.682 312.11 302.084 307.623L331.721 258.126Z" fill="#7BBCF2"/>
<path d="M449.195 257.579L472.481 220.961L477.157 122.952L476.42 122.915L471.754 220.732L448.572 257.181L449.195 257.579Z" fill="#7BBCF2"/>
<path d="M69.9648 435.619L80.188 291.197L118.809 272.064L118.86 271.986L144.942 235.013L164.669 319.092L165.388 318.922L145.285 233.25L118.315 271.484L79.4836 290.725L79.4688 290.936L69.2309 435.567L69.9648 435.619Z" fill="#7BBCF2"/>
<path d="M36.6844 276.961L40.3245 217.902L118.351 272.075L118.772 271.469L39.6717 216.547L35.9505 276.916L36.6844 276.961Z" fill="#7BBCF2"/>
<path d="M145.001 234.482L145.226 233.781L48.6926 202.949L39.6866 217.027L40.3098 217.422L49.0061 203.824L145.001 234.482Z" fill="#7BBCF2"/>
<path d="M144.23 440.752L144.78 440.346L232.532 375.557L232.197 375.254L183.957 331.923L279.06 293.449L284.909 334.669L315.59 369.807L316.146 369.32L285.606 334.348L279.657 292.412L182.585 331.68L231.367 375.501L144.89 439.346L141.793 382.83L141.059 382.871L144.23 440.752Z" fill="#7BBCF2"/>
<path d="M461.451 329.774L461.589 330.499L409.618 340.4L409.48 339.675L461.451 329.774Z" fill="#7BBCF2"/>
<path d="M575.026 363.574L575.317 363.56L635.9 360.596L560.687 314.575L575.026 363.574ZM633.473 359.976L575.572 362.811L561.933 316.203L633.473 359.976Z" fill="#7BBCF2"/>
<path d="M663.457 426.006L586.034 300.32L608.232 395.126L608.373 395.207L663.457 426.006ZM587.786 304.575L661.34 423.976L608.874 394.639L587.786 304.571V304.575Z" fill="#7BBCF2"/>
<path d="M592.688 430.933L516.825 392.978L516.648 393.089L474.557 419.548L592.688 430.936V430.933ZM516.866 393.823L588.811 429.818L476.785 419.02L516.87 393.823H516.866Z" fill="#7BBCF2"/>
<path d="M582.225 496.763L552.437 391.775L492.968 428.228L493.395 428.556L582.225 496.767V496.763ZM551.99 392.912L580.904 494.822L494.266 428.298L551.987 392.916L551.99 392.912Z" fill="#7BBCF2"/>
<path d="M696.925 417.478L719.566 369.475L718.78 369.704L606.905 402.377L696.925 417.482V417.478ZM718.198 370.641L696.497 416.659L610.206 402.182L718.201 370.641H718.198Z" fill="#7BBCF2"/>
<path d="M655.852 493.929L583.32 453.354H583.221L481.406 455.214L655.852 493.929ZM583.132 454.096L651.106 492.121L487.628 455.842L583.136 454.096H583.132Z" fill="#7BBCF2"/>
<path d="M421.786 453.384L421.952 453.259L452.223 430.541L451.271 430.453L337.334 419.884L421.789 453.384H421.786ZM450.246 431.102L421.671 452.546L342.379 421.098L450.246 431.106V431.102Z" fill="#7BBCF2"/>
<path d="M646.982 304.195L553.964 222.47L562.284 272.414L562.483 272.488L646.982 304.195ZM555.033 224.393L643.464 302.087L562.94 271.872L555.033 224.393Z" fill="#7BBCF2"/>
<path d="M474.978 314.815L478.345 275.049L514.576 296.253L506.141 257.546L533.525 287.345L476.615 122.509L442.313 185.708L427.115 140.698L397.415 232.6L432.393 249.719L474.978 314.815ZM477.641 274.636L474.421 312.62L433.687 250.354L448.719 257.712L477.637 274.639L477.641 274.636ZM505.153 256.469L513.495 294.766L478.411 274.234L481.568 236.962L481.539 236.947L481.277 230.489L505.149 256.469H505.153ZM478.234 129.447L531.674 284.238L505.832 256.114L478.234 129.447ZM480.798 237.383L477.711 273.817L449.07 257.055L432.898 249.14L419.684 228.939L442.155 187.538L454.233 223.308L480.794 237.379L480.798 237.383ZM477.087 127.635L504.847 255.037L481.236 229.345L477.087 127.635ZM441.838 186.59L418.828 228.98L431.603 248.509L398.315 232.216L427.133 143.049L441.838 186.594V186.59ZM480.51 229.648L480.79 236.545L454.841 222.799L442.638 186.66L476.228 124.771L480.458 228.504L472.511 219.854L471.968 220.352L480.506 229.644L480.51 229.648Z" fill="#2D678B"/>
<path d="M84.0459 453.299L193.333 404.163L193.392 404.042L214.797 358.611L230.161 312.859L284.747 335.584L285.031 334.905L229.715 311.874L214.107 358.356L192.783 403.603L83.7436 452.628L84.0459 453.299Z" fill="#2D678B"/>
<path d="M192.735 404.252H313.097L285.204 335.041L285.16 334.993L229.471 275.58L228.933 276.086L284.574 335.447L312.005 403.514H193.384L184.205 331.141L183.471 331.233L192.735 404.252Z" fill="#2D678B"/>
<path d="M74.863 358.976L166.528 317.837L80.2696 320.79L120.262 303.08L153.488 269.82L152.968 269.296L119.838 302.46L76.4857 321.657L162.796 318.705L75.2207 358.01L36.8213 277.134L144.883 233.737L144.607 233.05L35.8182 276.743L35.9841 277.097L74.863 358.976Z" fill="#2D678B"/>
<path d="M123.408 370.925L118.193 271.754L117.456 271.791L122.564 368.94L36.5889 276.688L36.0505 277.189L123.408 370.925Z" fill="#2D678B"/>
<path d="M79.5726 291.316L154.118 269.683L47.8336 202.654L70.6329 274.835L71.3372 274.614L49.1429 204.351L152.337 269.432L79.366 290.607L79.5726 291.316Z" fill="#2D678B"/>
<path d="M257.441 269.598L257.674 269.551L305.481 259.539L305.533 259.31L331.246 147.813L250.283 222.138L214.21 170.382L258.857 93.6326L367.945 138.775L359.009 70.9781L358.279 71.0741L367.045 137.602L258.54 92.7027L213.738 169.714L191.751 138.167L191.533 138.189L65.0529 151.293L201.332 192.502L213.79 171.084L250.146 223.249L250.456 222.965L329.977 149.964L304.85 258.915L257.736 268.783L201.834 193.325L201.24 193.764L257.423 269.606L257.441 269.598ZM213.336 170.416L200.996 191.627L68.7889 151.651L191.4 138.945L213.333 170.416H213.336Z" fill="#2D678B"/>
<path d="M294.97 209.436L295.107 209.304L367.76 138.451L442.254 66.8599L441.745 66.3285L367.248 137.919L294.727 208.643L201.49 191.749L192.023 138.916L266.211 136.879L277.349 198.679L313.193 134.853L266.823 136.126L258.994 92.6953L258.595 92.8171L66.8192 151.123L67.0332 151.828L258.411 93.6437L266.071 136.144L191.138 138.2L200.849 192.384L294.963 209.44L294.97 209.436ZM311.909 135.62L277.71 196.524L266.956 136.857L311.909 135.624V135.62Z" fill="#2D678B"/>
<path d="M413.44 366.575L413.761 365.91L324.902 323.277L387.417 315.321L461.605 330.388L467.097 363.718L467.823 363.6L462.251 329.768L462.004 329.716L387.443 314.575L387.384 314.583L322.328 322.86L413.44 366.575Z" fill="#2D678B"/>
<path d="M323.403 322.732L323.874 323.301L263.402 373.482L262.931 372.914L323.403 322.732Z" fill="#2D678B"/>
<path d="M459.875 199.504L460.304 200.104L419.475 229.256L419.047 228.655L459.875 199.504Z" fill="#2D678B"/>
<path d="M312.555 404.278L312.68 404.23L383.711 377.771L416.87 383.948L417.006 383.221L385.057 377.269L414.321 366.368L413.846 365.962L372.592 330.58L333.812 258.668L408.542 339.555L409.084 339.053L330.397 253.882L331.95 256.764L372.012 331.052L372.064 331.097L412.894 366.117L383.652 377.011L341.826 369.217L284.872 334.802L284.673 334.953L231.393 375.59L232.038 375.819L312.562 404.278H312.555ZM382.302 377.509L312.547 403.492L232.92 375.35L284.917 335.691L341.553 369.914L382.302 377.509Z" fill="#2D678B"/>
<path d="M332.67 256.537L342.072 369.514L341.336 369.576L331.935 256.598L332.67 256.537Z" fill="#2D678B"/>
<path d="M6.82161 147.15C5.70541 146.033 5.70541 144.223 6.82161 143.106C7.9378 141.989 9.74752 141.989 10.8637 143.106C11.9799 144.223 11.9799 146.033 10.8637 147.15C9.74752 148.267 7.9378 148.267 6.82161 147.15Z" fill="#7BBCF2"/>
<path d="M64.1012 151.994C64.1012 153.573 65.381 154.854 66.9594 154.854C68.5379 154.854 69.8176 153.573 69.8176 151.994C69.8176 150.415 68.5379 149.134 66.9594 149.134C65.381 149.134 64.1012 150.415 64.1012 151.994Z" fill="#7BBCF2"/>
<path d="M152.366 162.079C152.366 163.659 153.646 164.939 155.224 164.939C156.803 164.939 158.083 163.659 158.083 162.079C158.083 160.5 156.803 159.219 155.224 159.219C153.646 159.219 152.366 160.5 152.366 162.079Z" fill="#7BBCF2"/>
<path d="M13.6384 170.766C12.2513 170.766 11.1268 169.641 11.1268 168.253C11.1268 166.865 12.2513 165.74 13.6384 165.74C15.0254 165.74 16.1499 166.865 16.1499 168.253C16.1499 169.641 15.0254 170.766 13.6384 170.766Z" fill="#7BBCF2"/>
<path d="M154.129 114.261C154.129 115.649 155.254 116.774 156.641 116.774C158.027 116.774 159.152 115.649 159.152 114.261C159.152 112.874 158.027 111.748 156.641 111.748C155.254 111.748 154.129 112.874 154.129 114.261Z" fill="#7BBCF2"/>
<path d="M199.399 192.063C199.399 193.45 200.524 194.576 201.911 194.576C203.298 194.576 204.422 193.45 204.422 192.063C204.422 190.675 203.298 189.55 201.911 189.55C200.524 189.55 199.399 190.675 199.399 192.063Z" fill="#7BBCF2"/>
<path d="M151.477 217.474C151.477 218.861 152.602 219.987 153.989 219.987C155.376 219.987 156.5 218.861 156.5 217.474C156.5 216.086 155.376 214.961 153.989 214.961C152.602 214.961 151.477 216.086 151.477 217.474Z" fill="#7BBCF2"/>
<path d="M114.195 271.905C114.195 273.82 115.748 275.374 117.662 275.374C119.576 275.374 121.129 273.82 121.129 271.905C121.129 269.99 119.576 268.436 117.662 268.436C115.748 268.436 114.195 269.99 114.195 271.905Z" fill="#7BBCF2"/>
<path d="M142.073 234.449C142.073 235.836 143.198 236.962 144.585 236.962C145.971 236.962 147.096 235.836 147.096 234.449C147.096 233.061 145.971 231.936 144.585 231.936C143.198 231.936 142.073 233.061 142.073 234.449Z" fill="#7BBCF2"/>
<path d="M37.7726 217.156C37.7726 218.544 38.8974 219.669 40.2841 219.669C41.6708 219.669 42.7957 218.544 42.7957 217.156C42.7957 215.769 41.6708 214.643 40.2841 214.643C38.8974 214.643 37.7726 215.769 37.7726 217.156Z" fill="#7BBCF2"/>
<path d="M302.907 259.225C302.907 260.613 304.031 261.738 305.418 261.738C306.805 261.738 307.93 260.613 307.93 259.225C307.93 257.838 306.805 256.712 305.418 256.712C304.031 256.712 302.907 257.838 302.907 259.225Z" fill="#7BBCF2"/>
<path d="M329.645 256.827C329.645 258.214 330.77 259.34 332.156 259.34C333.543 259.34 334.668 258.214 334.668 256.827C334.668 255.439 333.543 254.313 332.156 254.313C330.77 254.313 329.645 255.439 329.645 256.827Z" fill="#7BBCF2"/>
<path d="M320.609 322.882C320.609 324.27 321.734 325.395 323.121 325.395C324.508 325.395 325.632 324.27 325.632 322.882C325.632 321.495 324.508 320.369 323.121 320.369C321.734 320.369 320.609 321.495 320.609 322.882Z" fill="#7BBCF2"/>
<path d="M313.572 370.335C313.572 371.722 314.697 372.848 316.084 372.848C317.471 372.848 318.595 371.722 318.595 370.335C318.595 368.947 317.471 367.822 316.084 367.822C314.697 367.822 313.572 368.947 313.572 370.335Z" fill="#7BBCF2"/>
<path d="M299.219 307.937C299.219 309.324 300.344 310.45 301.73 310.45C303.117 310.45 304.242 309.324 304.242 307.937C304.242 306.549 303.117 305.423 301.73 305.423C300.344 305.423 299.219 306.549 299.219 307.937Z" fill="#7BBCF2"/>
<path d="M282.748 335.429C282.748 336.816 283.873 337.942 285.26 337.942C286.646 337.942 287.771 336.816 287.771 335.429C287.771 334.041 286.646 332.916 285.26 332.916C283.873 332.916 282.748 334.041 282.748 335.429Z" fill="#7BBCF2"/>
<path d="M211.444 358.803C211.444 360.191 212.569 361.316 213.956 361.316C215.342 361.316 216.467 360.191 216.467 358.803C216.467 357.415 215.342 356.29 213.956 356.29C212.569 356.29 211.444 357.415 211.444 358.803Z" fill="#7BBCF2"/>
<path d="M81.221 452.871C81.221 454.259 82.3459 455.384 83.7326 455.384C85.1193 455.384 86.2441 454.259 86.2441 452.871C86.2441 451.484 85.1193 450.358 83.7326 450.358C82.3459 450.358 81.221 451.484 81.221 452.871Z" fill="#7BBCF2"/>
<path d="M67.0223 435.527C67.0223 436.914 68.1472 438.04 69.5339 438.04C70.9205 438.04 72.0454 436.914 72.0454 435.527C72.0454 434.139 70.9205 433.014 69.5339 433.014C68.1472 433.014 67.0223 434.139 67.0223 435.527Z" fill="#7BBCF2"/>
<path d="M276.906 292.807C276.906 294.194 278.031 295.32 279.418 295.32C280.805 295.32 281.929 294.194 281.929 292.807C281.929 291.419 280.805 290.293 279.418 290.293C278.031 290.293 276.906 291.419 276.906 292.807Z" fill="#7BBCF2"/>
<path d="M226.067 276.754C226.067 278.621 227.579 280.138 229.449 280.138C231.319 280.138 232.831 278.625 232.831 276.754C232.831 274.883 231.319 273.37 229.449 273.37C227.579 273.37 226.067 274.883 226.067 276.754Z" fill="#7BBCF2"/>
<path d="M206.343 268.63C205.023 267.309 205.023 265.166 206.343 263.845C207.664 262.523 209.805 262.523 211.126 263.844C212.447 265.166 212.447 267.309 211.126 268.63C209.805 269.952 207.664 269.952 206.343 268.63Z" fill="#7BBCF2"/>
<path d="M151.577 271.951C150.256 270.629 150.256 268.487 151.577 267.165C152.898 265.844 155.039 265.844 156.36 267.165C157.68 268.487 157.68 270.629 156.36 271.951C155.039 273.272 152.898 273.272 151.577 271.951Z" fill="#7BBCF2"/>
<path d="M68.4116 277.12C67.0909 275.798 67.0909 273.656 68.4116 272.334C69.7323 271.013 71.8736 271.013 73.1944 272.334C74.5151 273.656 74.515 275.798 73.1943 277.12C71.8736 278.441 69.7323 278.441 68.4116 277.12Z" fill="#7BBCF2"/>
<path d="M77.4453 293.447C76.1246 292.125 76.1246 289.983 77.4453 288.661C78.766 287.34 80.9073 287.34 82.228 288.661C83.5488 289.983 83.5487 292.125 82.228 293.447C80.9073 294.768 78.766 294.768 77.4453 293.447Z" fill="#7BBCF2"/>
<path d="M228.28 352.958C228.28 354.928 229.877 356.526 231.846 356.526C233.816 356.526 235.413 354.928 235.413 352.958C235.413 350.987 233.816 349.389 231.846 349.389C229.877 349.389 228.28 350.987 228.28 352.958Z" fill="#7BBCF2"/>
<path d="M188.265 404.13C188.265 406.916 190.522 409.175 193.307 409.175C196.091 409.175 198.348 406.916 198.348 404.13C198.348 401.344 196.091 399.086 193.307 399.086C190.522 399.086 188.265 401.344 188.265 404.13Z" fill="#7BBCF2"/>
<path d="M226.558 312.612C226.558 314.583 228.155 316.181 230.124 316.181C232.094 316.181 233.69 314.583 233.69 312.612C233.69 310.641 232.094 309.044 230.124 309.044C228.155 309.044 226.558 310.641 226.558 312.612Z" fill="#7BBCF2"/>
<path d="M228.339 375.099C228.339 377.07 229.936 378.667 231.905 378.667C233.875 378.667 235.472 377.07 235.472 375.099C235.472 373.128 233.875 371.531 231.905 371.531C229.936 371.531 228.339 373.128 228.339 375.099Z" fill="#7BBCF2"/>
<path d="M140.565 440.232C140.565 442.203 142.162 443.801 144.131 443.801C146.1 443.801 147.697 442.203 147.697 440.232C147.697 438.261 146.1 436.664 144.131 436.664C142.162 436.664 140.565 438.261 140.565 440.232Z" fill="#7BBCF2"/>
<path d="M338.888 371.997C337.496 370.604 337.496 368.344 338.888 366.951C340.281 365.557 342.539 365.557 343.932 366.951C345.325 368.344 345.325 370.604 343.932 371.997C342.539 373.391 340.281 373.391 338.888 371.997Z" fill="#7BBCF2"/>
<path d="M259.873 375.408C258.481 374.014 258.481 371.755 259.873 370.361C261.266 368.968 263.524 368.968 264.917 370.361C266.31 371.755 266.31 374.014 264.917 375.408C263.524 376.802 261.266 376.802 259.873 375.408Z" fill="#7BBCF2"/>
<path d="M180.152 331.801C180.152 333.772 181.749 335.37 183.718 335.37C185.687 335.37 187.284 333.772 187.284 331.801C187.284 329.831 185.687 328.233 183.718 328.233C181.749 328.233 180.152 329.831 180.152 331.801Z" fill="#7BBCF2"/>
<path d="M229.508 420.858C229.508 423.404 231.574 425.471 234.118 425.471C236.663 425.471 238.728 423.404 238.728 420.858C238.728 418.312 236.663 416.245 234.118 416.245C231.574 416.245 229.508 418.312 229.508 420.858Z" fill="#7BBCF2"/>
<path d="M138.883 385.377C137.49 383.984 137.49 381.724 138.883 380.331C140.275 378.937 142.533 378.937 143.926 380.331C145.319 381.724 145.319 383.984 143.926 385.377C142.533 386.771 140.275 386.771 138.883 385.377Z" fill="#7BBCF2"/>
<path d="M120.281 373.136C118.888 371.743 118.888 369.483 120.281 368.09C121.674 366.696 123.932 366.696 125.325 368.09C126.717 369.483 126.717 371.743 125.325 373.136C123.932 374.53 121.674 374.53 120.281 373.136Z" fill="#7BBCF2"/>
<path d="M70.4336 358.678C70.4336 361.224 72.4988 363.29 75.0436 363.29C77.5883 363.29 79.6536 361.224 79.6536 358.678C79.6536 356.131 77.5883 354.065 75.0436 354.065C72.4988 354.065 70.4336 356.131 70.4336 358.678Z" fill="#7BBCF2"/>
<path d="M49.4714 355.793C48.0787 354.399 48.0787 352.14 49.4714 350.746C50.8641 349.353 53.1222 349.353 54.5149 350.746C55.9076 352.14 55.9076 354.399 54.5149 355.793C53.1221 357.186 50.8641 357.186 49.4714 355.793Z" fill="#7BBCF2"/>
<path d="M162.506 321.287C161.113 319.893 161.113 317.634 162.506 316.24C163.899 314.847 166.157 314.847 167.55 316.24C168.942 317.634 168.942 319.893 167.55 321.287C166.157 322.68 163.899 322.68 162.506 321.287Z" fill="#7BBCF2"/>
<path d="M33.7968 279.832C32.4041 278.438 32.4041 276.179 33.7968 274.785C35.1896 273.392 37.4476 273.392 38.8403 274.785C40.2331 276.179 40.233 278.438 38.8403 279.832C37.4476 281.225 35.1895 281.225 33.7968 279.832Z" fill="#7BBCF2"/>
<path d="M46.1525 206.397C44.7598 205.004 44.7598 202.744 46.1525 201.351C47.5453 199.957 49.8033 199.957 51.196 201.351C52.5888 202.744 52.5887 205.004 51.196 206.397C49.8033 207.791 47.5453 207.791 46.1525 206.397Z" fill="#7BBCF2"/>
<path d="M255.457 269.558C255.457 270.946 256.582 272.071 257.968 272.071C259.355 272.071 260.48 270.946 260.48 269.558C260.48 268.17 259.355 267.045 257.968 267.045C256.582 267.045 255.457 268.17 255.457 269.558Z" fill="#7BBCF2"/>
<path d="M324.721 232.412C324.721 234.179 326.152 235.611 327.919 235.611C329.685 235.611 331.116 234.179 331.116 232.412C331.116 230.644 329.685 229.212 327.919 229.212C326.152 229.212 324.721 230.644 324.721 232.412Z" fill="#7BBCF2"/>
<path d="M238.741 174.156C237.492 172.906 237.492 170.881 238.741 169.631C239.989 168.382 242.014 168.382 243.262 169.631C244.511 170.881 244.511 172.906 243.262 174.156C242.014 175.405 239.989 175.405 238.741 174.156Z" fill="#7BBCF2"/>
<path d="M309.92 137.254C308.671 136.004 308.671 133.978 309.92 132.729C311.168 131.48 313.193 131.48 314.442 132.729C315.69 133.978 315.69 136.004 314.442 137.254C313.193 138.503 311.168 138.503 309.92 137.254Z" fill="#7BBCF2"/>
<path d="M347.771 114.383C347.771 116.151 349.202 117.582 350.969 117.582C352.735 117.582 354.166 116.151 354.166 114.383C354.166 112.615 352.735 111.183 350.969 111.183C349.202 111.183 347.771 112.615 347.771 114.383Z" fill="#7BBCF2"/>
<path d="M254.771 93.4112C254.771 95.1789 256.202 96.6107 257.969 96.6107C259.735 96.6107 261.166 95.1789 261.166 93.4112C261.166 91.6436 259.735 90.2118 257.969 90.2118C256.202 90.2118 254.771 91.6436 254.771 93.4112Z" fill="#7BBCF2"/>
<path d="M187.649 137.694C187.649 139.462 189.08 140.894 190.847 140.894C192.613 140.894 194.044 139.462 194.044 137.694C194.044 135.927 192.613 134.495 190.847 134.495C189.08 134.495 187.649 135.927 187.649 137.694Z" fill="#7BBCF2"/>
<path d="M291.849 211.056C290.6 209.807 290.6 207.781 291.849 206.531C293.097 205.282 295.122 205.282 296.371 206.531C297.619 207.781 297.619 209.807 296.371 211.056C295.122 212.306 293.097 212.305 291.849 211.056Z" fill="#7BBCF2"/>
<path d="M412.986 125.885C412.986 127.653 414.417 129.085 416.184 129.085C417.95 129.085 419.381 127.653 419.381 125.885C419.381 124.118 417.95 122.686 416.184 122.686C414.417 122.686 412.986 124.118 412.986 125.885Z" fill="#7BBCF2"/>
<path d="M423.929 141.875C423.929 143.643 425.359 145.075 427.126 145.075C428.893 145.075 430.323 143.643 430.323 141.875C430.323 140.108 428.893 138.676 427.126 138.676C425.359 138.676 423.929 140.108 423.929 141.875Z" fill="#7BBCF2"/>
<path d="M484.626 69.1478C484.626 70.9154 486.057 72.3473 487.823 72.3473C489.59 72.3473 491.021 70.9154 491.021 69.1478C491.021 67.3802 489.59 65.9484 487.823 65.9484C486.057 65.9484 484.626 67.3802 484.626 69.1478Z" fill="#7BBCF2"/>
<path d="M381.59 197.279C380.341 196.03 380.341 194.004 381.59 192.755C382.839 191.505 384.863 191.505 386.112 192.755C387.361 194.004 387.361 196.03 386.112 197.279C384.863 198.529 382.839 198.529 381.59 197.279Z" fill="#7BBCF2"/>
<path d="M416.994 231.228C415.746 229.979 415.746 227.953 416.994 226.703C418.243 225.454 420.268 225.454 421.516 226.703C422.765 227.953 422.765 229.979 421.516 231.228C420.268 232.478 418.243 232.478 416.994 231.228Z" fill="#7BBCF2"/>
<path d="M479.759 240.032C478.179 239.244 477.536 237.323 478.324 235.741C479.111 234.16 481.031 233.517 482.612 234.305C484.192 235.093 484.835 237.014 484.047 238.595C483.259 240.177 481.34 240.82 479.759 240.032Z" fill="#7BBCF2"/>
<path d="M529.405 285.795C529.405 287.563 530.836 288.994 532.603 288.994C534.369 288.994 535.8 287.563 535.8 285.795C535.8 284.027 534.369 282.596 532.603 282.596C530.836 282.596 529.405 284.027 529.405 285.795Z" fill="#7BBCF2"/>
<path d="M559.046 272.141C559.046 273.909 560.477 275.341 562.243 275.341C564.01 275.341 565.441 273.909 565.441 272.141C565.441 270.373 564.01 268.942 562.243 268.942C560.477 268.942 559.046 270.373 559.046 272.141Z" fill="#7BBCF2"/>
<path d="M545.337 357.19C544.088 355.94 544.088 353.915 545.337 352.665C546.585 351.416 548.61 351.416 549.859 352.665C551.107 353.915 551.107 355.94 549.859 357.19C548.61 358.439 546.585 358.439 545.337 357.19Z" fill="#7BBCF2"/>
<path d="M583.265 301.663C583.265 303.431 584.696 304.863 586.462 304.863C588.229 304.863 589.66 303.431 589.66 301.663C589.66 299.895 588.229 298.464 586.462 298.464C584.696 298.464 583.265 299.895 583.265 301.663Z" fill="#7BBCF2"/>
<path d="M631.97 361.675C631.009 360.192 631.432 358.211 632.914 357.25C634.396 356.29 636.376 356.713 637.337 358.196C638.297 359.679 637.874 361.66 636.392 362.621C634.91 363.581 632.93 363.158 631.97 361.675Z" fill="#7BBCF2"/>
<path d="M557.571 315.686C557.571 317.454 559.002 318.885 560.768 318.885C562.535 318.885 563.966 317.454 563.966 315.686C563.966 313.918 562.535 312.487 560.768 312.487C559.002 312.487 557.571 313.918 557.571 315.686Z" fill="#7BBCF2"/>
<path d="M605.393 394.657C605.393 396.425 606.824 397.857 608.591 397.857C610.357 397.857 611.788 396.425 611.788 394.657C611.788 392.89 610.357 391.458 608.591 391.458C606.824 391.458 605.393 392.89 605.393 394.657Z" fill="#7BBCF2"/>
<path d="M572.201 362.8C572.201 364.567 573.632 365.999 575.398 365.999C577.165 365.999 578.596 364.567 578.596 362.8C578.596 361.032 577.165 359.6 575.398 359.6C573.632 359.6 572.201 361.032 572.201 362.8Z" fill="#7BBCF2"/>
<path d="M659.298 426.474C658.303 425.014 658.679 423.024 660.137 422.028C661.596 421.032 663.585 421.408 664.581 422.867C665.576 424.327 665.201 426.317 663.742 427.313C662.283 428.309 660.294 427.934 659.298 426.474Z" fill="#7BBCF2"/>
<path d="M693.168 416.555C693.168 418.323 694.598 419.755 696.365 419.755C698.132 419.755 699.562 418.323 699.562 416.555C699.562 414.788 698.132 413.356 696.365 413.356C694.598 413.356 693.168 414.788 693.168 416.555Z" fill="#7BBCF2"/>
<path d="M715.295 370.058C715.295 371.826 716.726 373.258 718.493 373.258C720.259 373.258 721.69 371.826 721.69 370.058C721.69 368.291 720.259 366.859 718.493 366.859C716.726 366.859 715.295 368.291 715.295 370.058Z" fill="#7BBCF2"/>
<path d="M606.374 402.532C606.374 403.89 607.473 404.994 608.834 404.994C610.195 404.994 611.294 403.894 611.294 402.532C611.294 401.171 610.195 400.071 608.834 400.071C607.473 400.071 606.374 401.171 606.374 402.532Z" fill="#7BBCF2"/>
<path d="M514.422 364.261C513.173 363.012 513.173 360.986 514.422 359.736C515.671 358.487 517.695 358.487 518.944 359.736C520.193 360.986 520.193 363.012 518.944 364.261C517.695 365.51 515.671 365.51 514.422 364.261Z" fill="#7BBCF2"/>
<path d="M406.916 342.488C405.667 341.239 405.667 339.213 406.916 337.964C408.165 336.714 410.189 336.714 411.438 337.963C412.686 339.213 412.686 341.239 411.438 342.488C410.189 343.738 408.164 343.738 406.916 342.488Z" fill="#7BBCF2"/>
<path d="M414.475 385.481C413.227 384.231 413.227 382.206 414.475 380.956C415.724 379.707 417.749 379.707 418.997 380.956C420.246 382.206 420.246 384.231 418.997 385.481C417.749 386.73 415.724 386.73 414.475 385.481Z" fill="#7BBCF2"/>
<path d="M336.658 422.384C335.41 421.134 335.41 419.109 336.659 417.859C337.907 416.61 339.932 416.61 341.18 417.859C342.429 419.109 342.429 421.134 341.18 422.384C339.932 423.633 337.907 423.633 336.658 422.384Z" fill="#7BBCF2"/>
<path d="M473.483 421.275C472.234 420.026 472.234 418 473.483 416.75C474.731 415.501 476.756 415.501 478.005 416.75C479.253 418 479.253 420.026 478.005 421.275C476.756 422.524 474.731 422.524 473.483 421.275Z" fill="#7BBCF2"/>
<path d="M448.407 432.717C447.158 431.468 447.158 429.442 448.407 428.193C449.655 426.943 451.68 426.943 452.928 428.193C454.177 429.442 454.177 431.468 452.929 432.717C451.68 433.967 449.655 433.967 448.407 432.717Z" fill="#7BBCF2"/>
<path d="M514.054 396.552C512.805 395.303 512.805 393.277 514.054 392.028C515.302 390.778 517.327 390.778 518.575 392.028C519.824 393.277 519.824 395.303 518.575 396.552C517.327 397.802 515.302 397.802 514.054 396.552Z" fill="#7BBCF2"/>
<path d="M652.469 496.046C651.071 494.965 650.814 492.956 651.893 491.558C652.973 490.159 654.981 489.902 656.378 490.982C657.776 492.062 658.033 494.071 656.954 495.47C655.874 496.868 653.866 497.126 652.469 496.046Z" fill="#7BBCF2"/>
<path d="M482.998 459.154C481.419 458.363 480.78 456.441 481.571 454.861C482.362 453.281 484.284 452.642 485.862 453.433C487.441 454.225 488.08 456.147 487.289 457.727C486.498 459.307 484.577 459.946 482.998 459.154Z" fill="#7BBCF2"/>
<path d="M549.826 395.077C548.578 393.827 548.578 391.801 549.826 390.552C551.075 389.302 553.1 389.303 554.348 390.552C555.597 391.801 555.597 393.827 554.348 395.077C553.1 396.326 551.075 396.326 549.826 395.077Z" fill="#7BBCF2"/>
<path d="M577.855 495.401C577.855 497.169 579.286 498.601 581.052 498.601C582.819 498.601 584.25 497.169 584.25 495.401C584.25 493.634 582.819 492.202 581.052 492.202C579.286 492.202 577.855 493.634 577.855 495.401Z" fill="#7BBCF2"/>
<path d="M585.647 430.084C585.647 432.53 587.628 434.512 590.073 434.512C592.518 434.512 594.499 432.53 594.499 430.084C594.499 427.637 592.518 425.656 590.073 425.656C587.628 425.656 585.647 427.637 585.647 430.084Z" fill="#7BBCF2"/>
<path d="M489.59 428.608C489.59 431.054 491.57 433.036 494.015 433.036C496.46 433.036 498.441 431.054 498.441 428.608C498.441 426.161 496.46 424.179 494.015 424.179C491.57 424.179 489.59 426.161 489.59 428.608Z" fill="#7BBCF2"/>
<path d="M417.674 452.963C417.674 455.41 419.654 457.392 422.099 457.392C424.544 457.392 426.525 455.41 426.525 452.963C426.525 450.517 424.544 448.535 422.099 448.535C419.654 448.535 417.674 450.517 417.674 452.963Z" fill="#7BBCF2"/>
<path d="M578.471 453.701C578.471 456.148 580.451 458.13 582.896 458.13C585.341 458.13 587.322 456.148 587.322 453.701C587.322 451.255 585.341 449.273 582.896 449.273C580.451 449.273 578.471 451.255 578.471 453.701Z" fill="#7BBCF2"/>
<path d="M309.304 406.641C308.056 405.391 308.056 403.366 309.304 402.116C310.553 400.867 312.578 400.867 313.826 402.116C315.075 403.366 315.075 405.391 313.826 406.641C312.577 407.89 310.553 407.89 309.304 406.641Z" fill="#7BBCF2"/>
<path d="M516.182 216.118C515.126 215.061 515.126 213.349 516.182 212.292C517.238 211.236 518.949 211.236 520.005 212.292C521.061 213.349 521.061 215.061 520.005 216.118C518.949 217.174 517.238 217.174 516.182 216.118Z" fill="#7BBCF2"/>
<path d="M552.696 225.712C551.641 224.655 551.641 222.943 552.696 221.886C553.752 220.83 555.464 220.83 556.519 221.886C557.575 222.943 557.575 224.655 556.519 225.712C555.464 226.768 553.752 226.768 552.696 225.712Z" fill="#7BBCF2"/>
<path d="M641.41 302.401C641.41 304.158 642.833 305.586 644.593 305.586C646.352 305.586 647.775 304.161 647.775 302.401C647.775 300.641 646.352 299.216 644.593 299.216C642.833 299.216 641.41 300.641 641.41 302.401Z" fill="#7BBCF2"/>
<path d="M473.838 123.424C473.838 124.919 475.048 126.129 476.542 126.129C478.035 126.129 479.245 124.919 479.245 123.424C479.245 121.93 478.035 120.719 476.542 120.719C475.048 120.719 473.838 121.93 473.838 123.424Z" fill="#7BBCF2"/>
<path d="M395.254 232.412C395.254 233.855 396.423 235.025 397.865 235.025C399.307 235.025 400.477 233.855 400.477 232.412C400.477 230.969 399.307 229.799 397.865 229.799C396.423 229.799 395.254 230.969 395.254 232.412Z" fill="#7BBCF2"/>
<path d="M469.505 220.847C469.505 222.289 470.674 223.459 472.116 223.459C473.558 223.459 474.727 222.289 474.727 220.847C474.727 219.404 473.558 218.234 472.116 218.234C470.674 218.234 469.505 219.404 469.505 220.847Z" fill="#7BBCF2"/>
<path d="M453.554 223.555C453.554 224.574 454.38 225.4 455.398 225.4C456.416 225.4 457.242 224.574 457.242 223.555C457.242 222.537 456.416 221.71 455.398 221.71C454.38 221.71 453.554 222.537 453.554 223.555Z" fill="#7BBCF2"/>
<path d="M493.632 303.265C493.632 304.283 494.458 305.11 495.476 305.11C496.494 305.11 497.32 304.283 497.32 303.265C497.32 302.246 496.494 301.42 495.476 301.42C494.458 301.42 493.632 302.246 493.632 303.265Z" fill="#7BBCF2"/>
<path d="M413.787 368.18C412.768 368.18 411.943 367.354 411.943 366.335C411.943 365.316 412.768 364.49 413.787 364.49C414.805 364.49 415.631 365.316 415.631 366.335C415.631 367.354 414.805 368.18 413.787 368.18Z" fill="#7BBCF2"/>
<path d="M467.631 366.427C466.409 366.427 465.419 365.436 465.419 364.213C465.419 362.99 466.409 361.999 467.631 361.999C468.854 361.999 469.844 362.99 469.844 364.213C469.844 365.436 468.854 366.427 467.631 366.427Z" fill="#7BBCF2"/>
<path d="M461.177 332.384C459.955 332.384 458.965 331.393 458.965 330.17C458.965 328.947 459.955 327.956 461.177 327.956C462.399 327.956 463.39 328.947 463.39 330.17C463.39 331.393 462.399 332.384 461.177 332.384Z" fill="#7BBCF2"/>
<path d="M457.581 200.428C457.581 201.871 458.751 203.041 460.193 203.041C461.635 203.041 462.804 201.871 462.804 200.428C462.804 198.986 461.635 197.816 460.193 197.816C458.751 197.816 457.581 198.986 457.581 200.428Z" fill="#7BBCF2"/>
<path d="M446.27 257.38C446.27 258.823 447.44 259.993 448.882 259.993C450.324 259.993 451.493 258.823 451.493 257.38C451.493 255.937 450.324 254.767 448.882 254.767C447.44 254.767 446.27 255.937 446.27 257.38Z" fill="#7BBCF2"/>
<path d="M411.725 278.414C411.725 279.857 412.894 281.027 414.336 281.027C415.778 281.027 416.947 279.857 416.947 278.414C416.947 276.972 415.778 275.802 414.336 275.802C412.894 275.802 411.725 276.972 411.725 278.414Z" fill="#7BBCF2"/>
<path d="M399.311 296.744C399.311 298.187 400.48 299.357 401.922 299.357C403.364 299.357 404.533 298.187 404.533 296.744C404.533 295.301 403.364 294.131 401.922 294.131C400.48 294.131 399.311 295.301 399.311 296.744Z" fill="#7BBCF2"/>
<path d="M369.56 332.292C369.56 333.735 370.729 334.905 372.171 334.905C373.613 334.905 374.782 333.735 374.782 332.292C374.782 330.849 373.613 329.679 372.171 329.679C370.729 329.679 369.56 330.849 369.56 332.292Z" fill="#7BBCF2"/>
<path d="M511.426 295.515C511.426 296.958 512.596 298.128 514.038 298.128C515.48 298.128 516.649 296.958 516.649 295.515C516.649 294.072 515.48 292.902 514.038 292.902C512.596 292.902 511.426 294.072 511.426 295.515Z" fill="#7BBCF2"/>
<path d="M472.086 313.719C472.086 315.162 473.255 316.332 474.698 316.332C476.14 316.332 477.309 315.162 477.309 313.719C477.309 312.276 476.14 311.106 474.698 311.106C473.255 311.106 472.086 312.276 472.086 313.719Z" fill="#7BBCF2"/>
<path d="M343.622 239.885C343.622 241.328 344.791 242.497 346.233 242.497C347.675 242.497 348.844 241.328 348.844 239.885C348.844 238.442 347.675 237.272 346.233 237.272C344.791 237.272 343.622 238.442 343.622 239.885Z" fill="#7BBCF2"/>
<path d="M341.929 145.075C341.929 146.842 343.36 148.274 345.127 148.274C346.894 148.274 348.324 146.842 348.324 145.075C348.324 143.307 346.894 141.875 345.127 141.875C343.36 141.875 341.929 143.307 341.929 145.075Z" fill="#7BBCF2"/>
<path d="M438.312 67.0886C438.312 68.8562 439.743 70.2881 441.509 70.2881C443.276 70.2881 444.707 68.8562 444.707 67.0886C444.707 65.321 443.276 63.8892 441.509 63.8892C439.743 63.8892 438.312 65.321 438.312 67.0886Z" fill="#7BBCF2"/>
<path d="M356.968 73.9326C355.768 72.7321 355.768 70.7857 356.968 69.5853C358.168 68.3848 360.113 68.3848 361.313 69.5853C362.513 70.7858 362.513 72.7321 361.313 73.9325C360.113 75.133 358.168 75.133 356.968 73.9326Z" fill="#7BBCF2"/>
<path d="M480.263 45.8365C480.263 47.1798 481.351 48.2647 482.69 48.2647C484.028 48.2647 485.116 47.1761 485.116 45.8365C485.116 44.4969 484.028 43.4083 482.69 43.4083C481.351 43.4083 480.263 44.4969 480.263 45.8365Z" fill="#7BBCF2"/>
<path d="M382.652 96.6107C382.652 97.9539 383.74 99.0389 385.079 99.0389C386.418 99.0389 387.506 97.9502 387.506 96.6107C387.506 95.2711 386.418 94.1825 385.079 94.1825C383.74 94.1825 382.652 95.2711 382.652 96.6107Z" fill="#7BBCF2"/>
<path d="M365.197 138.68C365.197 140.023 366.285 141.108 367.624 141.108C368.963 141.108 370.051 140.019 370.051 138.68C370.051 137.34 368.963 136.251 367.624 136.251C366.285 136.251 365.197 137.34 365.197 138.68Z" fill="#7BBCF2"/>
<path d="M328.07 149.012C328.07 150.355 329.158 151.44 330.497 151.44C331.835 151.44 332.923 150.352 332.923 149.012C332.923 147.673 331.835 146.584 330.497 146.584C329.158 146.584 328.07 147.673 328.07 149.012Z" fill="#7BBCF2"/>
<path d="M247.345 225.816C246.097 224.567 246.097 222.541 247.345 221.292C248.594 220.042 250.619 220.042 251.867 221.292C253.116 222.541 253.116 224.567 251.867 225.816C250.619 227.066 248.594 227.066 247.345 225.816Z" fill="#7BBCF2"/>
<path d="M272.857 242.115C271.608 240.865 271.608 238.84 272.857 237.59C274.106 236.341 276.13 236.341 277.379 237.59C278.628 238.84 278.628 240.865 277.379 242.115C276.13 243.364 274.106 243.364 272.857 242.115Z" fill="#7BBCF2"/>
<path style="mix-blend-mode:screen" d="M252.864 82.6615C136.847 108.899 43.9059 135.089 45.2778 141.159C46.6497 147.23 141.811 130.878 257.832 104.641C373.849 78.403 466.791 52.2133 465.419 46.1428C464.047 40.0724 368.885 56.4239 252.864 82.6615Z" fill="url(#paint0_radial_1_1107)"/>
<path style="mix-blend-mode:screen" d="M120.693 211.95C61.04 181.649 10.8869 160.629 8.67039 164.998C6.4539 169.368 53.0149 197.473 112.665 227.77C172.314 258.07 222.471 279.09 224.688 274.721C226.904 270.351 180.343 242.246 120.693 211.95Z" fill="url(#paint1_radial_1_1107)"/>
<path style="mix-blend-mode:screen" d="M198.828 307.853C197.187 297.939 232.943 283.758 278.691 276.18C324.439 268.602 362.855 270.496 364.495 280.411C366.135 290.326 330.379 304.506 284.631 312.084C238.884 319.663 200.468 317.768 198.828 307.853Z" fill="url(#paint2_radial_1_1107)"/>
<path style="mix-blend-mode:screen" d="M412.245 148.54C369.774 200.259 338.415 244.708 342.199 247.819C345.983 250.93 383.479 211.525 425.946 159.806C468.417 108.087 499.776 63.6383 495.992 60.5275C492.208 57.4166 454.712 96.8211 412.245 148.54Z" fill="url(#paint3_radial_1_1107)"/>
<path style="mix-blend-mode:screen" d="M482.232 66.2694C470.803 66.2694 461.539 56.999 461.539 45.5634C461.539 34.1278 470.803 24.8574 482.232 24.8574C493.661 24.8574 502.926 34.1278 502.926 45.5634C502.926 56.999 493.661 66.2694 482.232 66.2694Z" fill="url(#paint4_radial_1_1107)"/>
<path style="mix-blend-mode:screen" d="M214.286 172.509C213.579 158.36 224.47 146.317 238.61 145.61C252.751 144.903 264.786 155.8 265.493 169.949C266.199 184.098 255.309 196.141 241.168 196.848C227.028 197.555 214.992 186.658 214.286 172.509Z" fill="url(#paint5_radial_1_1107)"/>
<path style="mix-blend-mode:screen" d="M531.537 308.712C520.108 308.712 510.844 299.441 510.844 288.006C510.844 276.57 520.108 267.3 531.537 267.3C542.966 267.3 552.23 276.57 552.23 288.006C552.23 299.441 542.966 308.712 531.537 308.712Z" fill="url(#paint6_radial_1_1107)"/>
<path style="mix-blend-mode:screen" d="M723.501 473.359C712.073 473.359 702.808 464.089 702.808 452.653C702.808 441.218 712.073 431.947 723.501 431.947C734.93 431.947 744.195 441.218 744.195 452.653C744.195 464.089 734.93 473.359 723.501 473.359Z" fill="url(#paint7_radial_1_1107)"/>
<path style="mix-blend-mode:screen" d="M850.748 511.004C839.32 511.004 830.055 501.733 830.055 490.298C830.055 478.862 839.32 469.592 850.748 469.592C862.177 469.592 871.442 478.862 871.442 490.298C871.442 501.733 862.177 511.004 850.748 511.004Z" fill="url(#paint8_radial_1_1107)"/>
<path style="mix-blend-mode:screen" d="M575.229 384.782C563.8 384.782 554.535 375.512 554.535 364.076C554.535 352.641 563.8 343.37 575.229 343.37C586.657 343.37 595.922 352.641 595.922 364.076C595.922 375.512 586.657 384.782 575.229 384.782Z" fill="url(#paint9_radial_1_1107)"/>
<path style="mix-blend-mode:screen" d="M496.667 450.107C485.238 450.107 475.974 440.837 475.974 429.401C475.974 417.966 485.238 408.695 496.667 408.695C508.096 408.695 517.36 417.966 517.36 429.401C517.36 440.837 508.096 450.107 496.667 450.107Z" fill="url(#paint10_radial_1_1107)"/>
<path style="mix-blend-mode:screen" d="M347.332 260.557C335.904 260.557 326.639 251.287 326.639 239.851C326.639 228.416 335.904 219.145 347.332 219.145C358.761 219.145 368.026 228.416 368.026 239.851C368.026 251.287 358.761 260.557 347.332 260.557Z" fill="url(#paint11_radial_1_1107)"/>
<path style="mix-blend-mode:screen" d="M66.6753 174.143C55.2467 174.143 45.9819 164.872 45.9819 153.437C45.9819 142.001 55.2467 132.731 66.6753 132.731C78.104 132.731 87.3687 142.001 87.3687 153.437C87.3687 164.872 78.104 174.143 66.6753 174.143Z" fill="url(#paint12_radial_1_1107)"/>
<path style="mix-blend-mode:screen" d="M352.127 135.026C340.698 135.026 331.433 125.756 331.433 114.32C331.433 102.885 340.698 93.6143 352.127 93.6143C363.555 93.6143 372.82 102.885 372.82 114.32C372.82 125.756 363.555 135.026 352.127 135.026Z" fill="url(#paint13_radial_1_1107)"/>
<path style="mix-blend-mode:screen" d="M258.452 114.361C247.023 114.361 237.758 105.09 237.758 93.6548C237.758 82.2192 247.023 72.9489 258.452 72.9489C269.88 72.9489 279.145 82.2192 279.145 93.6548C279.145 105.09 269.88 114.361 258.452 114.361Z" fill="url(#paint14_radial_1_1107)"/>
<path style="mix-blend-mode:screen" d="M388.054 342.09C387.242 330.683 395.826 320.778 407.226 319.967C418.626 319.155 428.525 327.744 429.336 339.151C430.147 350.558 421.563 360.463 410.164 361.274C398.764 362.086 388.865 353.497 388.054 342.09Z" fill="url(#paint15_radial_1_1107)"/>
<path style="mix-blend-mode:screen" d="M229.156 396.125C217.783 394.999 209.475 384.861 210.6 373.481C211.726 362.101 221.858 353.788 233.231 354.914C244.604 356.04 252.911 366.178 251.786 377.558C250.661 388.938 240.529 397.251 229.156 396.125Z" fill="url(#paint16_radial_1_1107)"/>
<path style="mix-blend-mode:screen" d="M164.23 340.263C152.802 340.263 143.537 330.993 143.537 319.557C143.537 308.121 152.802 298.851 164.23 298.851C175.659 298.851 184.924 308.121 184.924 319.557C184.924 330.993 175.659 340.263 164.23 340.263Z" fill="url(#paint17_radial_1_1107)"/>
<path style="mix-blend-mode:screen" d="M79.045 311.479C67.6163 311.479 58.3515 302.209 58.3515 290.773C58.3515 279.338 67.6163 270.067 79.045 270.067C90.4736 270.067 99.7383 279.338 99.7383 290.773C99.7383 302.209 90.4736 311.479 79.045 311.479Z" fill="url(#paint18_radial_1_1107)"/>
</g>
<defs>
<radialGradient id="paint0_radial_1_1107" cx="0" cy="0" r="1" gradientUnits="userSpaceOnUse" gradientTransform="translate(248.622 73.9015) rotate(-102.673) scale(11.9165 215.868)">
<stop stop-color="#ACD6FC"/>
<stop offset="0.04" stop-color="#A0C7EA"/>
<stop offset="0.19" stop-color="#7693AD"/>
<stop offset="0.35" stop-color="#526678"/>
<stop offset="0.49" stop-color="#34414D"/>
<stop offset="0.64" stop-color="#1D252B"/>
<stop offset="0.77" stop-color="#0D1013"/>
<stop offset="0.9" stop-color="#030405"/>
<stop offset="1"/>
</radialGradient>
<radialGradient id="paint1_radial_1_1107" cx="0" cy="0" r="1" gradientUnits="userSpaceOnUse" gradientTransform="translate(120.115 219.615) rotate(-63.0641) scale(8.93497 120.579)">
<stop stop-color="#ACD6FC"/>
<stop offset="0.04" stop-color="#A0C7EA"/>
<stop offset="0.19" stop-color="#7693AD"/>
<stop offset="0.35" stop-color="#526678"/>
<stop offset="0.49" stop-color="#34414D"/>
<stop offset="0.64" stop-color="#1D252B"/>
<stop offset="0.77" stop-color="#0D1013"/>
<stop offset="0.9" stop-color="#030405"/>
<stop offset="1"/>
</radialGradient>
<radialGradient id="paint2_radial_1_1107" cx="0" cy="0" r="1" gradientUnits="userSpaceOnUse" gradientTransform="translate(285.138 301.036) rotate(-99.3744) scale(17.8768 83.3767)">
<stop stop-color="#ACD6FC"/>
<stop offset="0.04" stop-color="#A0C7EA"/>
<stop offset="0.19" stop-color="#7693AD"/>
<stop offset="0.35" stop-color="#526678"/>
<stop offset="0.49" stop-color="#34414D"/>
<stop offset="0.64" stop-color="#1D252B"/>
<stop offset="0.77" stop-color="#0D1013"/>
<stop offset="0.9" stop-color="#030405"/>
<stop offset="1"/>
</radialGradient>
<radialGradient id="paint3_radial_1_1107" cx="0" cy="0" r="1" gradientUnits="userSpaceOnUse" gradientTransform="translate(417.93 150.903) rotate(-140.573) scale(8.93527 120.64)">
<stop stop-color="#ACD6FC"/>
<stop offset="0.04" stop-color="#A0C7EA"/>
<stop offset="0.19" stop-color="#7693AD"/>
<stop offset="0.35" stop-color="#526678"/>
<stop offset="0.49" stop-color="#34414D"/>
<stop offset="0.64" stop-color="#1D252B"/>
<stop offset="0.77" stop-color="#0D1013"/>
<stop offset="0.9" stop-color="#030405"/>
<stop offset="1"/>
</radialGradient>
<radialGradient id="paint4_radial_1_1107" cx="0" cy="0" r="1" gradientUnits="userSpaceOnUse" gradientTransform="translate(483.438 45.7088) rotate(180) scale(20.7189 20.7315)">
<stop stop-color="#ACD6FC"/>
<stop offset="0.04" stop-color="#A0C7EA"/>
<stop offset="0.19" stop-color="#7693AD"/>
<stop offset="0.35" stop-color="#526678"/>
<stop offset="0.49" stop-color="#34414D"/>
<stop offset="0.64" stop-color="#1D252B"/>
<stop offset="0.77" stop-color="#0D1013"/>
<stop offset="0.9" stop-color="#030405"/>
<stop offset="1"/>
</radialGradient>
<radialGradient id="paint5_radial_1_1107" cx="0" cy="0" r="1" gradientUnits="userSpaceOnUse" gradientTransform="translate(240.69 171.546) rotate(180) scale(25.6681 25.6837)">
<stop stop-color="#ACD6FC"/>
<stop offset="0.04" stop-color="#A0C7EA"/>
<stop offset="0.19" stop-color="#7693AD"/>
<stop offset="0.35" stop-color="#526678"/>
<stop offset="0.49" stop-color="#34414D"/>
<stop offset="0.64" stop-color="#1D252B"/>
<stop offset="0.77" stop-color="#0D1013"/>
<stop offset="0.9" stop-color="#030405"/>
<stop offset="1"/>
</radialGradient>
<radialGradient id="paint6_radial_1_1107" cx="0" cy="0" r="1" gradientUnits="userSpaceOnUse" gradientTransform="translate(532.825 288.408) rotate(180) scale(20.7189 20.7315)">
<stop stop-color="#ACD6FC"/>
<stop offset="0.04" stop-color="#A0C7EA"/>
<stop offset="0.19" stop-color="#7693AD"/>
<stop offset="0.35" stop-color="#526678"/>
<stop offset="0.49" stop-color="#34414D"/>
<stop offset="0.64" stop-color="#1D252B"/>
<stop offset="0.77" stop-color="#0D1013"/>
<stop offset="0.9" stop-color="#030405"/>
<stop offset="1"/>
</radialGradient>
<radialGradient id="paint7_radial_1_1107" cx="0" cy="0" r="1" gradientUnits="userSpaceOnUse" gradientTransform="translate(725.09 453.226) rotate(180) scale(20.7189 20.7315)">
<stop stop-color="#ACD6FC"/>
<stop offset="0.04" stop-color="#A0C7EA"/>
<stop offset="0.19" stop-color="#7693AD"/>
<stop offset="0.35" stop-color="#526678"/>
<stop offset="0.49" stop-color="#34414D"/>
<stop offset="0.64" stop-color="#1D252B"/>
<stop offset="0.77" stop-color="#0D1013"/>
<stop offset="0.9" stop-color="#030405"/>
<stop offset="1"/>
</radialGradient>
<radialGradient id="paint8_radial_1_1107" cx="0" cy="0" r="1" gradientUnits="userSpaceOnUse" gradientTransform="translate(852.54 490.909) rotate(180) scale(20.7189 20.7315)">
<stop stop-color="#ACD6FC"/>
<stop offset="0.04" stop-color="#A0C7EA"/>
<stop offset="0.19" stop-color="#7693AD"/>
<stop offset="0.35" stop-color="#526678"/>
<stop offset="0.49" stop-color="#34414D"/>
<stop offset="0.64" stop-color="#1D252B"/>
<stop offset="0.77" stop-color="#0D1013"/>
<stop offset="0.9" stop-color="#030405"/>
<stop offset="1"/>
</radialGradient>
<radialGradient id="paint9_radial_1_1107" cx="0" cy="0" r="1" gradientUnits="userSpaceOnUse" gradientTransform="translate(576.583 364.558) rotate(180) scale(20.7189 20.7315)">
<stop stop-color="#ACD6FC"/>
<stop offset="0.04" stop-color="#A0C7EA"/>
<stop offset="0.19" stop-color="#7693AD"/>
<stop offset="0.35" stop-color="#526678"/>
<stop offset="0.49" stop-color="#34414D"/>
<stop offset="0.64" stop-color="#1D252B"/>
<stop offset="0.77" stop-color="#0D1013"/>
<stop offset="0.9" stop-color="#030405"/>
<stop offset="1"/>
</radialGradient>
<radialGradient id="paint10_radial_1_1107" cx="0" cy="0" r="1" gradientUnits="userSpaceOnUse" gradientTransform="translate(497.896 429.95) rotate(180) scale(20.7189 20.7315)">
<stop stop-color="#ACD6FC"/>
<stop offset="0.04" stop-color="#A0C7EA"/>
<stop offset="0.19" stop-color="#7693AD"/>
<stop offset="0.35" stop-color="#526678"/>
<stop offset="0.49" stop-color="#34414D"/>
<stop offset="0.64" stop-color="#1D252B"/>
<stop offset="0.77" stop-color="#0D1013"/>
<stop offset="0.9" stop-color="#030405"/>
<stop offset="1"/>
</radialGradient>
<radialGradient id="paint11_radial_1_1107" cx="0" cy="0" r="1" gradientUnits="userSpaceOnUse" gradientTransform="translate(348.327 240.201) rotate(180) scale(20.7189 20.7315)">
<stop stop-color="#ACD6FC"/>
<stop offset="0.04" stop-color="#A0C7EA"/>
<stop offset="0.19" stop-color="#7693AD"/>
<stop offset="0.35" stop-color="#526678"/>
<stop offset="0.49" stop-color="#34414D"/>
<stop offset="0.64" stop-color="#1D252B"/>
<stop offset="0.77" stop-color="#0D1013"/>
<stop offset="0.9" stop-color="#030405"/>
<stop offset="1"/>
</radialGradient>
<radialGradient id="paint12_radial_1_1107" cx="0" cy="0" r="1" gradientUnits="userSpaceOnUse" gradientTransform="translate(67.2259 153.697) rotate(180) scale(20.7189 20.7315)">
<stop stop-color="#ACD6FC"/>
<stop offset="0.04" stop-color="#A0C7EA"/>
<stop offset="0.19" stop-color="#7693AD"/>
<stop offset="0.35" stop-color="#526678"/>
<stop offset="0.49" stop-color="#34414D"/>
<stop offset="0.64" stop-color="#1D252B"/>
<stop offset="0.77" stop-color="#0D1013"/>
<stop offset="0.9" stop-color="#030405"/>
<stop offset="1"/>
</radialGradient>
<radialGradient id="paint13_radial_1_1107" cx="0" cy="0" r="1" gradientUnits="userSpaceOnUse" gradientTransform="translate(353.128 114.539) rotate(180) scale(20.7189 20.7315)">
<stop stop-color="#ACD6FC"/>
<stop offset="0.04" stop-color="#A0C7EA"/>
<stop offset="0.19" stop-color="#7693AD"/>
<stop offset="0.35" stop-color="#526678"/>
<stop offset="0.49" stop-color="#34414D"/>
<stop offset="0.64" stop-color="#1D252B"/>
<stop offset="0.77" stop-color="#0D1013"/>
<stop offset="0.9" stop-color="#030405"/>
<stop offset="1"/>
</radialGradient>
<radialGradient id="paint14_radial_1_1107" cx="0" cy="0" r="1" gradientUnits="userSpaceOnUse" gradientTransform="translate(259.305 93.8518) rotate(180) scale(20.7189 20.7315)">
<stop stop-color="#ACD6FC"/>
<stop offset="0.04" stop-color="#A0C7EA"/>
<stop offset="0.19" stop-color="#7693AD"/>
<stop offset="0.35" stop-color="#526678"/>
<stop offset="0.49" stop-color="#34414D"/>
<stop offset="0.64" stop-color="#1D252B"/>
<stop offset="0.77" stop-color="#0D1013"/>
<stop offset="0.9" stop-color="#030405"/>
<stop offset="1"/>
</radialGradient>
<radialGradient id="paint15_radial_1_1107" cx="0" cy="0" r="1" gradientUnits="userSpaceOnUse" gradientTransform="translate(409.75 341.133) rotate(180) scale(20.7189 20.7315)">
<stop stop-color="#ACD6FC"/>
<stop offset="0.04" stop-color="#A0C7EA"/>
<stop offset="0.19" stop-color="#7693AD"/>
<stop offset="0.35" stop-color="#526678"/>
<stop offset="0.49" stop-color="#34414D"/>
<stop offset="0.64" stop-color="#1D252B"/>
<stop offset="0.77" stop-color="#0D1013"/>
<stop offset="0.9" stop-color="#030405"/>
<stop offset="1"/>
</radialGradient>
<radialGradient id="paint16_radial_1_1107" cx="0" cy="0" r="1" gradientUnits="userSpaceOnUse" gradientTransform="translate(231.963 376.055) rotate(-180) scale(20.7189 20.7315)">
<stop stop-color="#ACD6FC"/>
<stop offset="0.04" stop-color="#A0C7EA"/>
<stop offset="0.19" stop-color="#7693AD"/>
<stop offset="0.35" stop-color="#526678"/>
<stop offset="0.49" stop-color="#34414D"/>
<stop offset="0.64" stop-color="#1D252B"/>
<stop offset="0.77" stop-color="#0D1013"/>
<stop offset="0.9" stop-color="#030405"/>
<stop offset="1"/>
</radialGradient>
<radialGradient id="paint17_radial_1_1107" cx="0" cy="0" r="1" gradientUnits="userSpaceOnUse" gradientTransform="translate(164.937 319.991) rotate(180) scale(20.7189 20.7315)">
<stop stop-color="#ACD6FC"/>
<stop offset="0.04" stop-color="#A0C7EA"/>
<stop offset="0.19" stop-color="#7693AD"/>
<stop offset="0.35" stop-color="#526678"/>
<stop offset="0.49" stop-color="#34414D"/>
<stop offset="0.64" stop-color="#1D252B"/>
<stop offset="0.77" stop-color="#0D1013"/>
<stop offset="0.9" stop-color="#030405"/>
<stop offset="1"/>
</radialGradient>
<radialGradient id="paint18_radial_1_1107" cx="0" cy="0" r="1" gradientUnits="userSpaceOnUse" gradientTransform="translate(79.6133 291.178) rotate(180) scale(20.7189 20.7315)">
<stop stop-color="#ACD6FC"/>
<stop offset="0.04" stop-color="#A0C7EA"/>
<stop offset="0.19" stop-color="#7693AD"/>
<stop offset="0.35" stop-color="#526678"/>
<stop offset="0.49" stop-color="#34414D"/>
<stop offset="0.64" stop-color="#1D252B"/>
<stop offset="0.77" stop-color="#0D1013"/>
<stop offset="0.9" stop-color="#030405"/>
<stop offset="1"/>
</radialGradient>
<clipPath id="clip0_1_1107">
<rect width="896" height="511" fill="white" transform="matrix(-1 0 0 1 896 0)"/>
</clipPath>
</defs>
</svg>
