<svg width="53" height="52" viewBox="0 0 53 52" fill="none" xmlns="http://www.w3.org/2000/svg">
<path d="M50.4 20.6L46.4 19.2C46 18.2 45.6 17.2 45.2 16.4L47 12.6C47.4 11.8 47.2 11 46.6 10.2L41.8 5.2C41.2 4.6 40.2 4.4 39.6 4.8L35.8 6.6C34.8 6.2 34 5.8 33 5.4L31.6 1.4C31.4 0.6 30.6 0 29.8 0H22.6C21.8 0 21 0.6 20.6 1.4L19.2 5.4C18.2 5.8 17.2 6.2 16.4 6.6L12.6 4.8C11.8 4.4 10.8 4.6 10.2 5.2L5.2 10.2C4.6 10.8 4.4 11.8 4.8 12.6L6.60001 16.4C6.20001 17.4 5.8 18.2 5.4 19.2L1.4 20.6C0.600001 20.8 0 21.6 0 22.4V29.6C0 30.4 0.600001 31.2 1.4 31.4L5.4 32.8C5.8 33.8 6.20001 34.8 6.60001 35.8L4.8 39.4C4.4 40.2 4.6 41.2 5.2 41.8L10.2 46.8C10.8 47.4 11.8 47.6 12.6 47.2L16.4 45.4C17.4 45.8 18.4 46.2 19.2 46.6L20.6 50.6C20.8 51.4 21.6 52 22.6 52H29.8C30.6 52 31.4 51.4 31.6 50.6L33 46.6C34 46.2 35 45.8 35.8 45.4L39.6 47.2C40.4 47.6 41.2 47.4 42 46.8L47 41.8C47.6 41.2 47.8 40.2 47.4 39.4L45.6 35.6C46 34.6 46.4 33.6 46.8 32.6L50.8 31.2C51.6 31 52.2 30.2 52.2 29.4V22.2C51.8 21.6 51.2 20.8 50.4 20.6ZM26 36C20.4 36 16 31.6 16 26C16 20.6 20.4 16 26 16C31.4 16 36 20.4 36 26C36 31.6 31.4 36 26 36Z" fill="#B0D93C"/>
</svg>
