<svg width="86" height="86" viewBox="0 0 86 86" fill="none" xmlns="http://www.w3.org/2000/svg">
<path d="M84 34.8L76.6 32.2C76 30.2 75.2 28.2 74 26.2L77.4 19.2C77.8 18.4 77.6 17.4 77 17L68.4 8.4C67.8 7.8 66.8 7.6 66.2 8L59.2 11.4C57.2 10.4 55.2 9.6 53.2 8.8L50.6 1.4C50.4 0.6 49.6 0 48.8 0H36.6C35.8 0 35 0.6 34.6 1.4L32 8.8C30 9.4 28 10.2 26 11.4L19.2 7.8C18.4 7.4 17.6 7.6 16.8 8.2L8.2 16.8C7.6 17.4 7.4 18.4 7.8 19L11.2 26C10.2 28 9.4 30 8.8 32L1.4 34.6C0.6 35 0 35.8 0 36.6V48.8C0 49.6 0.6 50.4 1.4 50.8L8.8 53.4C9.4 55.4 10.2 57.4 11.4 59.4L8 66.4C7.6 67.2 7.8 68.2 8.4 68.8L17 77.4C17.6 78 18.6 78.2 19.4 77.8L26.4 74.4C28.4 75.4 30.4 76.2 32.4 77L35 84.4C35.2 85.2 36 85.8 36.8 85.8H49C49.8 85.8 50.6 85.2 50.8 84.4L53.4 77C55.4 76.4 57.4 75.6 59.4 74.4L66.4 77.8C67.2 78.2 68 78 68.6 77.4L77.2 68.8C77.8 68.2 78 67.2 77.6 66.4L74 59.2C75 57.2 75.8 55.2 76.6 53.2L84 50.6C84.8 50.4 85.4 49.6 85.4 48.6V36.4C85.4 35.8 84.8 35 84 34.8ZM42.6 59.8C33.2 59.8 25.6 52.2 25.6 42.8C25.6 33.4 33.2 25.8 42.6 25.8C52 25.8 59.6 33.4 59.6 42.8C59.6 52 52 59.8 42.6 59.8Z" fill="#B0D93C"/>
</svg>
