<svg width="63" height="68" viewBox="0 0 63 68" fill="none" xmlns="http://www.w3.org/2000/svg">
<path d="M60.8081 27.2L55.2081 25.2C54.8081 23.6 54.2081 22.2 53.4081 20.8L56.0081 15.4C56.4081 14.6 56.2081 13.8 55.6081 13.2L48.8081 6.4C48.2081 5.8 47.2081 5.6 46.4081 6L41.2081 8.8C39.8081 8 38.2081 7.4 36.8081 7L35.0081 1.4C34.8081 0.599998 34.0081 0 33.0081 0H23.4081C23.0081 0 22.8081 7.59959e-07 22.4081 0.200001C23.0081 1.2 23.4081 2.4 23.4081 3.6V15.8C23.4081 18.4 21.8081 20.6 19.4081 21.4L13.8081 23.4C13.4081 24.4 13.0081 25.4 12.6081 26.2L15.2081 31.4C16.4081 33.8 16.0081 36.4 14.0081 38.4L5.4081 47C4.4081 48 3.20811 48.6 2.00811 48.8L0.208103 52.4C-0.191897 53.2 0.00810474 54 0.608105 54.6L7.4081 61.4C8.0081 62 9.0081 62.2 9.8081 61.8L15.2081 59.2C16.6081 60 18.2081 60.6 19.6081 61L21.6081 66.6C21.8081 67.4 22.6081 68 23.6081 68H33.2081C34.0081 68 34.8081 67.4 35.2081 66.6L37.0081 61C38.6081 60.4 40.0081 59.8 41.4081 59.2L46.8081 61.8C47.6081 62.2 48.4081 62 49.2081 61.4L56.0081 54.6C56.6081 54 56.8081 53 56.4081 52.4L53.8081 47C54.6081 45.6 55.2081 44 55.6081 42.6L61.2081 40.6C62.0081 40.4 62.6081 39.6 62.6081 38.6V29C62.2081 28.2 61.6081 27.6 60.8081 27.2ZM30.2081 47.4C22.8081 47.4 16.8081 41.4 16.8081 34C16.8081 26.6 22.8081 20.6 30.2081 20.6C37.6081 20.6 43.6081 26.6 43.6081 34C43.6081 41.4 37.6081 47.4 30.2081 47.4Z" fill="#B0D93C"/>
</svg>
