<svg width="212" height="209" viewBox="0 0 212 209" fill="none" xmlns="http://www.w3.org/2000/svg">
<path d="M79.5867 202.417V96.4667L39.2284 136.825C36.6575 139.396 32.4892 139.396 29.9183 136.825L2.65502 109.562C0.0841253 106.991 0.0841291 102.823 2.65503 100.252L100.312 2.59496C102.859 0.0476394 106.981 0.0208752 109.561 2.5349L175.24 66.5299L209.85 100.252C212.478 102.813 212.505 107.028 209.911 109.623L182.708 136.825C180.137 139.396 175.969 139.396 173.398 136.825L133.04 96.4667V143.283V202.417C133.04 206.053 130.093 209 126.457 209H86.1699C82.5341 209 79.5867 206.053 79.5867 202.417Z" fill="#B0D93C"/>
</svg>
