<svg width="212" height="209" viewBox="0 0 212 209" fill="none" xmlns="http://www.w3.org/2000/svg">
<path d="M132.573 6.58322L132.573 112.533L172.932 72.175C175.502 69.6041 179.671 69.6041 182.242 72.175L209.505 99.4383C212.076 102.009 212.076 106.177 209.505 108.748L111.848 206.405C109.301 208.952 105.179 208.979 102.599 206.465L36.9199 142.47L2.30998 108.748C-0.318024 106.187 -0.345398 101.972 2.24913 99.3775L29.4516 72.175C32.0225 69.6041 36.1907 69.6041 38.7616 72.175L79.1199 112.533L79.1199 65.7166V6.58322C79.1199 2.94742 82.0673 1.52588e-05 85.7031 1.52588e-05L125.99 1.52588e-05C129.626 1.52588e-05 132.573 2.94743 132.573 6.58322Z" fill="#028A7E"/>
</svg>
